<?xml version="1.0" encoding="UTF-8"?>
<svg width="14px" height="13px" viewBox="0 0 14 13" version="1.1" xmlns="http://www.w3.org/2000/svg" xmlns:xlink="http://www.w3.org/1999/xlink">
    <!-- Generator: Sketch 49.3 (51167) - http://www.bohemiancoding.com/sketch -->
    <title>听诊器,诊断,stethoscope</title>
    <desc>Created with Sketch.</desc>
    <defs></defs>
    <g id="设置管理" stroke="none" stroke-width="1" fill="none" fill-rule="evenodd">
        <g id="图标" transform="translate(-186.000000, -232.000000)" fill="#2ACDC8" fill-rule="nonzero">
            <g id="听诊器,诊断,stethoscope" transform="translate(186.000000, 232.000000)">
                <path d="M12.1569106,6.24283689 C11.5050169,6.24283689 10.9302288,6.58273566 10.6034057,7.094996 C10.29104,7.08754016 10.0137223,7.14499401 9.76838593,7.26648041 C9.01923384,7.6375183 8.77784039,8.48002866 8.54345655,9.29446997 C8.20042375,10.4913522 7.93493476,11.228165 6.84537847,11.2952676 C6.32841972,11.3277225 5.92317663,11.191763 5.61650618,10.8808104 C5.16351012,10.4211796 4.98520316,9.28832987 4.92211667,8.70765119 C4.89850283,8.492438 4.99135254,8.28095751 5.16570062,8.15284869 C7.44645255,6.47221374 8.52943733,4.85297986 8.38574032,3.33549633 C8.24992912,1.89257123 7.05128577,1.00795727 6.42874476,0.641743757 C6.48175494,0.768054526 6.48175494,0.768054526 6.42874476,0.641743757 C6.24442425,0.206934465 5.79315045,-0.0515216785 5.32531374,0.00978034006 C4.85747703,0.0710823586 4.48785188,0.437103301 4.4215257,0.904755566 C4.35519952,1.37240783 4.60844413,1.82696218 5.04074615,2.01620804 C5.47304816,2.2054539 5.97835082,2.08296354 6.27628574,1.71670103 C6.74768203,2.05879269 7.33079398,2.63508557 7.40570919,3.42759793 C7.46353847,4.03634566 7.2111925,4.70430156 6.66356671,5.41743111 L1.72529631,5.419624 C1.18599442,4.7056173 0.935400858,4.04204719 0.990601538,3.43812382 C1.05850714,2.70613538 2.02057614,1.79827673 2.02057614,1.79827673 C2.21676618,1.99506057 2.48324394,2.10539865 2.76096622,2.10484349 C3.34013526,2.10484349 3.80934105,1.63380958 3.80934105,1.05313091 C3.81045318,0.52483485 3.41959937,0.0778419761 2.89637382,0.00903248978 C2.37314826,-0.0597769966 1.88023396,0.270991374 1.74501084,0.781650477 L1.74501084,0.782527635 C1.09530759,1.21058079 0.132800488,2.052214 0.0127609128,3.33637348 C-0.141888613,4.95604594 1.11020301,6.68010021 3.7094541,8.49318604 C3.99246711,8.69098519 4.08008724,10.7207291 4.91291656,11.5702567 C5.37993184,12.0456764 5.98012971,12.2851406 6.69905286,12.2851406 C6.76695846,12.2851406 6.83617836,12.2833862 6.90715066,12.2785619 C8.74410664,12.1658471 9.17563577,10.6637138 9.49019203,9.56682757 C9.67287999,8.9295722 9.84592975,8.32784173 10.2056104,8.14977863 C10.238906,8.13311263 10.2814018,8.24495029 10.3199546,8.23442439 C10.3322215,9.2435948 11.1466505,9.9326025 12.1573487,9.9326025 C13.1751379,9.93248139 14.000121,9.10640105 14,8.08750041 C13.999879,7.06859977 13.1746998,6.24271578 12.1569106,6.24283689 Z M2.63785994,6.38537509 L5.75932699,6.38537509 C5.39645411,6.73085655 5.00999087,7.05062309 4.6027413,7.34235459 C4.36129655,7.51753273 4.03450082,7.51664662 3.79400752,7.34016169 C3.35941169,7.02131472 2.97344503,6.70816927 2.63785994,6.38537509 Z M13.0808649,8.57213027 C13.1338283,8.29636592 13.0609644,8.01133341 12.8821886,7.79493885 C12.7034128,7.5785443 12.4374194,7.45341571 12.1569106,7.45375367 C11.8764677,7.45378706 11.6106389,7.57897746 11.4318046,7.79523771 C11.2529703,8.01149795 11.17975,8.29631213 11.2320802,8.57213027 C11.0026071,8.1327586 11.1133835,7.59242462 11.4971792,7.27905683 C11.880975,6.96568903 12.4319701,6.96568903 12.8157658,7.27905683 C13.1995615,7.59242462 13.310338,8.1327586 13.0808649,8.57213027 Z" id="Shape"></path>
            </g>
        </g>
    </g>
</svg>