<?xml version="1.0" encoding="UTF-8"?>
<svg width="13px" height="15px" viewBox="0 0 13 15" version="1.1" xmlns="http://www.w3.org/2000/svg" xmlns:xlink="http://www.w3.org/1999/xlink">
    <!-- Generator: Sketch 49.3 (51167) - http://www.bohemiancoding.com/sketch -->
    <title>业务</title>
    <desc>Created with Sketch.</desc>
    <defs></defs>
    <g id="设置管理" stroke="none" stroke-width="1" fill="none" fill-rule="evenodd">
        <g id="图标" transform="translate(-95.000000, -554.000000)" fill="#2ACDC8" fill-rule="nonzero">
            <g id="业务" transform="translate(95.000000, 554.000000)">
                <path d="M4.64285714,5.54605263 L10.2142857,5.54605263 L10.2142857,6.47039473 L4.64285714,6.47039473 L4.64285714,5.54605263 Z M4.64285714,2.77302632 L10.2142857,2.77302632 L10.2142857,3.69736841 L4.64285714,3.69736841 L4.64285714,2.77302632 Z M3.71428571,0 L11.1428571,0 L11.1428571,0.924342107 L3.71428571,0.924342107 L3.71428571,0 Z M7.42857143,10.1677632 L7.42857143,8.31907895 L8.35714286,8.31907895 L8.35714286,11.0921053 L4.64285714,11.0921053 L4.64285714,8.31907895 L5.57142857,8.31907895 L5.57142857,10.1677632 L7.42857143,10.1677632 Z M3.71428571,8.31907895 L4.64285714,8.31907895 L4.64285714,9.24342106 L0,9.24342106 L0,8.31907895 L0.928571431,8.31907895 L0.928571431,1.84868421 L1.85714286,1.84868421 L1.85714286,8.31907895 L2.78571428,8.31907895 L2.78571428,2.77302632 L1.85714286,2.77302632 L1.85714286,1.84868421 L2.78571428,1.84868421 L2.78571428,0 L3.71428571,0 L3.71428571,8.31907895 Z M11.1428571,8.31907895 L11.1428571,0 L12.0714286,0 L12.0714286,8.31907895 L13,8.31907895 L13,9.24342106 L8.35714286,9.24342106 L8.35714286,8.31907895 L11.1428571,8.31907895 Z M12.0714286,13.8651316 L12.0714286,9.24342106 L13,9.24342106 L13,14.7894737 L0,14.7894737 L0,9.24342106 L0.928571431,9.24342106 L0.928571431,13.8651316 L12.0714286,13.8651316 Z" id="Shape"></path>
            </g>
        </g>
    </g>
</svg>