<?xml version="1.0" encoding="UTF-8"?>
<svg width="14px" height="13px" viewBox="0 0 14 13" version="1.1" xmlns="http://www.w3.org/2000/svg" xmlns:xlink="http://www.w3.org/1999/xlink">
    <!-- Generator: Sketch 49.3 (51167) - http://www.bohemiancoding.com/sketch -->
    <title>收银台</title>
    <desc>Created with Sketch.</desc>
    <defs></defs>
    <g id="设置管理" stroke="none" stroke-width="1" fill="none" fill-rule="evenodd">
        <g id="图标" transform="translate(-56.000000, -127.000000)" fill="#2ACDC8" fill-rule="nonzero">
            <g id="收银台" transform="translate(56.000000, 127.000000)">
                <polygon id="Shape" points="1.07692308 12.1875 12.6538462 12.1875 12.6538462 13 1.07692308 13"></polygon>
                <path d="M4.52048194,12.4583333 L3.67710843,12.4583333 L3.67710843,10.3424479 L0.42168676,10.3424479 C0.309848479,10.3424479 0.202590802,10.2978633 0.123509194,10.2185022 C0.0444275852,10.1391411 0,10.0315044 0,9.91927083 L0,0.423177078 C2.57491484e-16,0.310943536 0.0444275852,0.203306787 0.123509194,0.12394569 C0.202590802,0.0445845929 0.309848479,-4.82253461e-09 0.42168676,0 L13.5783132,0 C13.6901515,-4.82253512e-09 13.7974092,0.0445845929 13.8764908,0.12394569 C13.9555724,0.203306787 14,0.310943536 14,0.423177078 L14,9.91927083 C14,10.0315044 13.9555724,10.1391411 13.8764908,10.2185022 C13.7974092,10.2978633 13.6901515,10.3424479 13.5783132,10.3424479 L11.0903615,10.3424479 L11.0903615,9.49609375 L13.1566265,9.49609375 L13.1566265,0.846354157 L0.843373502,0.846354157 L0.843373502,9.49609375 L4.09879518,9.49609375 C4.21063346,9.49609374 4.31789113,9.54067834 4.39697274,9.62003944 C4.47605435,9.69940054 4.52048194,9.80703728 4.52048194,9.91927083 L4.52048194,12.4583333 Z" id="Shape"></path>
                <path d="M10.2307692,12.4583333 L9.40094836,12.4583333 L9.40094836,10.3303571 L5.38461538,10.3303571 L5.38461538,9.47916667 L9.80756059,9.47916667 C9.91760167,9.47916667 10.0231358,9.52400604 10.1009466,9.60382062 C10.1787574,9.68363521 10.222471,9.79188703 10.222471,9.9047619 L10.2307692,12.4583333 Z" id="Shape"></path>
                <path d="M7,4.8749928 C6.85193634,4.87408573 6.71545322,4.79355023 6.64142274,4.66340472 L5.11538462,2.05663967 L5.83253915,1.625 L7,3.63085494 L8.16746085,1.625 L8.88461538,2.05663967 L7.35857726,4.67186825 C7.28246643,4.79876245 7.14636926,4.87585791 7,4.8749928 Z" id="Shape"></path>
                <path d="M4.84615385,4.0625 L8.88461538,4.0625 L8.88461538,4.96527778 L4.84615385,4.96527778 L4.84615385,4.0625 Z M4.84615385,5.86805555 L8.88461538,5.86805555 L8.88461538,6.77083333 L4.84615385,6.77083333 L4.84615385,5.86805555 Z" id="Shape"></path>
                <polygon id="Shape" points="6.46153846 4.33333333 7.26923077 4.33333333 7.26923077 8.66666667 6.46153846 8.66666667"></polygon>
            </g>
        </g>
    </g>
</svg>