<?xml version="1.0" encoding="UTF-8"?>
<svg width="13px" height="12px" viewBox="0 0 13 12" version="1.1" xmlns="http://www.w3.org/2000/svg" xmlns:xlink="http://www.w3.org/1999/xlink">
    <!-- Generator: Sketch 49.3 (51167) - http://www.bohemiancoding.com/sketch -->
    <title>收银台</title>
    <desc>Created with Sketch.</desc>
    <defs></defs>
    <g id="设置管理" stroke="none" stroke-width="1" fill="none" fill-rule="evenodd">
        <g id="图标" transform="translate(-254.000000, -232.000000)" fill="#2ACDC8" fill-rule="nonzero">
            <g id="收银台" transform="translate(254.000000, 232.000000)">
                <polygon id="Shape" points="1 11.25 11.75 11.25 11.75 12 1 12"></polygon>
                <path d="M4.19759037,11.5 L3.41445783,11.5 L3.41445783,9.54687499 L0.391566277,9.54687499 C0.287716445,9.54687499 0.18812003,9.50571998 0.114687108,9.43246358 C0.0412541863,9.35920719 0,9.25985019 0,9.15624999 L0,0.390624995 C2.39099236e-16,0.287024802 0.0412541863,0.187667804 0.114687108,0.114411406 C0.18812003,0.0411550089 0.287716445,-4.45157041e-09 0.391566277,0 L12.6084337,0 C12.7122836,-4.45157088e-09 12.81188,0.0411550089 12.8853129,0.114411406 C12.9587458,0.187667804 13,0.287024802 13,0.390624995 L13,9.15624999 C13,9.25985019 12.9587458,9.35920719 12.8853129,9.43246358 C12.81188,9.50571998 12.7122836,9.54687499 12.6084337,9.54687499 L10.2981928,9.54687499 L10.2981928,8.765625 L12.2168675,8.765625 L12.2168675,0.781249991 L0.783132537,0.781249991 L0.783132537,8.765625 L3.80602409,8.765625 C3.90987392,8.76562499 4.00947034,8.80678001 4.08290326,8.88003641 C4.15633618,8.9532928 4.19759037,9.0526498 4.19759037,9.15624999 L4.19759037,11.5 Z" id="Shape"></path>
                <path d="M9.5,11.5 L8.72945205,11.5 L8.72945205,9.53571428 L5,9.53571428 L5,8.75 L9.10702055,8.75 C9.20920155,8.75 9.3071975,8.79139019 9.37945038,8.86506519 C9.45170327,8.9387402 9.49229451,9.03866495 9.49229451,9.14285714 L9.5,11.5 Z" id="Shape"></path>
                <path d="M6.5,4.49999335 C6.36251231,4.49915606 6.23577799,4.4248156 6.1670354,4.30468128 L4.75,1.89843662 L5.41592921,1.5 L6.5,3.3515584 L7.58407079,1.5 L8.25,1.89843662 L6.8329646,4.31249377 C6.76229026,4.42962687 6.63591431,4.50079191 6.5,4.49999335 Z" id="Shape"></path>
                <path d="M4.5,3.75 L8.25,3.75 L8.25,4.58333334 L4.5,4.58333334 L4.5,3.75 Z M4.5,5.41666666 L8.25,5.41666666 L8.25,6.25 L4.5,6.25 L4.5,5.41666666 Z" id="Shape"></path>
                <polygon id="Shape" points="6 4 6.75 4 6.75 8 6 8"></polygon>
            </g>
        </g>
    </g>
</svg>