<?xml version="1.0" encoding="UTF-8"?>
<svg width="13px" height="14px" viewBox="0 0 13 14" version="1.1" xmlns="http://www.w3.org/2000/svg" xmlns:xlink="http://www.w3.org/1999/xlink">
    <!-- Generator: Sketch 49.3 (51167) - http://www.bohemiancoding.com/sketch -->
    <title>小诊所</title>
    <desc>Created with Sketch.</desc>
    <defs></defs>
    <g id="设置管理" stroke="none" stroke-width="1" fill="none" fill-rule="evenodd">
        <g id="图标" transform="translate(-68.000000, -555.000000)" fill="#2ACDC8" fill-rule="nonzero">
            <g id="小诊所" transform="translate(68.000000, 555.000000)">
                <path d="M6.09747481,6.26740411 L6.1044459,8.43501703 L3.99067289,8.43501703 C3.54676386,8.43501703 3.54562005,8.98277222 3.98951362,8.98277222 L6.09747481,8.98277222 L6.09747481,11.1044793 C6.09747481,11.5517104 6.68092945,11.5661437 6.68092945,11.1189126 L6.68092945,9.01014301 L8.79420784,8.98278764 C9.2381014,8.98278764 9.23859603,8.43503245 8.79470247,8.43503245 L6.68094491,8.43503245 L6.68094491,6.32629372 C6.68094491,5.87917056 6.09747481,5.82029636 6.09747481,6.26740411 Z M12.1413088,6.25357222 L6.4895102,2.17387396 L0.814742522,6.27054982 C0.758880988,6.31690283 0.730208289,6.37583872 0.727967033,6.44097351 L0.72736421,6.44097351 L0.72736421,12.3014081 C0.72736421,12.9185695 1.22512536,13.4193548 1.8389066,13.4193548 L11.1384753,13.4193548 C11.752102,13.4193548 12.248302,12.9185695 12.248302,12.3014081 L12.248302,6.4752988 C12.2491676,6.46609296 12.2500487,6.45742683 12.2500487,6.44920788 C12.2500487,6.37295516 12.2100769,6.30373402 12.1413088,6.25357222 Z M11.6771357,12.0774302 C11.6769811,12.5602511 11.6213514,12.8442289 10.5241686,12.8442289 L2.45338341,12.8442289 C1.53635167,12.8442289 1.32613673,12.7417002 1.30041631,11.6940077 L1.30041631,6.70971619 L6.48878372,2.87559951 L11.6771357,6.70970078 L11.6771357,12.0774302 Z M12.8301028,4.79266556 C12.7356606,4.71812447 6.47162647,-0.014031921 6.4895102,3.12829466e-05 L0.147433757,4.79266556 C-0.221524372,5.09860168 0.175828223,5.58899385 0.531756119,5.36777612 L6.48878372,0.958579714 L12.4457804,5.36777611 C12.7452903,5.56657291 13.272497,5.14162394 12.8301028,4.79266556 Z" id="Shape"></path>
            </g>
        </g>
    </g>
</svg>