<?xml version="1.0" encoding="UTF-8"?>
<svg width="14px" height="13px" viewBox="0 0 14 13" version="1.1" xmlns="http://www.w3.org/2000/svg" xmlns:xlink="http://www.w3.org/1999/xlink">
    <!-- Generator: Sketch 49.3 (51167) - http://www.bohemiancoding.com/sketch -->
    <title>耗材</title>
    <desc>Created with Sketch.</desc>
    <defs></defs>
    <g id="设置管理" stroke="none" stroke-width="1" fill="none" fill-rule="evenodd">
        <g id="图标" transform="translate(-209.000000, -348.000000)" fill="#2ACDC8" fill-rule="nonzero">
            <g id="耗材" transform="translate(209.800000, 348.000000)">
                <path d="M9.75,13 C7.95507456,13 6.5,11.5449254 6.5,9.75 C6.5,7.95507456 7.95507456,6.49999999 9.75,6.49999999 C11.5449254,6.49999999 13,7.95507456 13,9.75 C13,11.5449254 11.5449254,13 9.75,13 Z M9.75,8.66666667 C9.15169152,8.66666667 8.66666667,9.15169152 8.66666667,9.75 C8.66666667,10.3483085 9.15169152,10.8333333 9.75,10.8333333 C10.3483085,10.8333333 10.8333333,10.3483085 10.8333333,9.75 C10.8333333,9.15169152 10.3483085,8.66666667 9.75,8.66666667 Z M3.25,13 C1.45507456,13 2.19814969e-16,11.5449254 0,9.75 C-2.19814969e-16,7.95507456 1.45507456,6.49999999 3.25,6.49999999 C5.04492544,6.49999999 6.5,7.95507456 6.5,9.75 C6.5,10.6119536 6.15759027,11.4386038 5.54809704,12.048097 C4.93860381,12.6575903 4.11195359,13 3.25,13 Z M3.25,8.66666667 C2.65169152,8.66666667 2.16666667,9.15169152 2.16666667,9.75 C2.16666667,10.3483085 2.65169152,10.8333333 3.25,10.8333333 C3.84830848,10.8333333 4.33333333,10.3483085 4.33333333,9.75 C4.33333333,9.15169152 3.84830848,8.66666667 3.25,8.66666667 Z M6.5,7.22222222 C4.50563841,7.22222222 2.8888889,5.60547271 2.88888889,3.61111111 C2.88888889,1.61674952 4.5056384,4.67428552e-09 6.49999999,0 C8.49436158,-4.67428552e-09 10.1111111,1.6167495 10.1111111,3.6111111 C10.1111111,4.56883731 9.73065585,5.48733755 9.05344115,6.16455226 C8.37622646,6.84176696 7.45772621,7.22222222 6.5,7.22222222 Z M6.5,2.16666666 C5.91577676,2.16666666 5.38907989,2.51859425 5.16550734,3.05834615 C4.94193478,3.59809805 5.06551532,4.21937936 5.47862354,4.63248758 C5.89173176,5.04559579 6.51301307,5.16917633 7.05276497,4.94560377 C7.59251686,4.72203121 7.94444445,4.19533434 7.94444445,3.6111111 C7.94444444,2.81336646 7.29774464,2.16666666 6.5,2.16666666 Z" id="Shape"></path>
            </g>
        </g>
    </g>
</svg>