<?xml version="1.0" encoding="UTF-8"?>
<svg width="13px" height="14px" viewBox="0 0 13 14" version="1.1" xmlns="http://www.w3.org/2000/svg" xmlns:xlink="http://www.w3.org/1999/xlink">
    <!-- Generator: Sketch 49.3 (51167) - http://www.bohemiancoding.com/sketch -->
    <title>科室管理</title>
    <desc>Created with Sketch.</desc>
    <defs></defs>
    <g id="设置管理" stroke="none" stroke-width="1" fill="none" fill-rule="evenodd">
        <g id="图标" transform="translate(-57.000000, -348.000000)" fill="#2ACDC8" fill-rule="nonzero">
            <g id="科室管理" transform="translate(57.000000, 348.000000)">
                <path d="M7.05069753,12.8383085 L0.440270024,12.8383085 C0.3044985,12.8383085 0.194029851,12.72846 0.194029851,12.59233 L0.194029851,0.439597666 C0.194029851,0.303673006 0.3044985,0.194029851 0.440270024,0.194029851 L7.05049182,0.194029851 C7.18585191,0.194029851 7.29652627,0.30387833 7.29652627,0.439597666 L7.29652627,12.59233 C7.29663547,12.6574942 7.27079051,12.7200297 7.22468276,12.7661656 C7.178575,12.8123014 7.11598562,12.8382541 7.05069753,12.8383085 Z M0.686510197,12.3469675 L6.80445736,12.3469675 L6.80445736,0.685370806 L0.686510197,0.685370806 L0.686510197,12.3469675 Z M12.55973,12.8383085 L7.05069753,12.8383085 C6.91492601,12.8383085 6.80445736,12.72846 6.80445736,12.59233 L6.80445736,3.7541472 C6.80445736,3.61842787 6.91492601,3.50837406 7.05069753,3.50837406 L12.55973,3.50837406 C12.6955015,3.50837406 12.8059701,3.61842787 12.8059701,3.7541472 L12.8059701,12.5921247 C12.8059701,12.72846 12.6955015,12.8383085 12.55973,12.8383085 Z M7.29673199,12.3469675 L12.3134898,12.3469675 L12.3134898,3.99992034 L7.29673199,3.99992034 L7.29673199,12.3469675 Z M2.39784854,2.64950268 L2.89012318,2.64950268 L2.89012318,8.17334126 L2.39784854,8.17334126 L2.39784854,2.64950268 Z M4.60084438,2.64950268 L5.09311901,2.64950268 L5.09311901,8.17334126 L4.60084438,8.17334126 L4.60084438,2.64950268 Z M10.9080488,12.8383085 L8.70443584,12.8383085 C8.63911209,12.8383085 8.57646983,12.8123799 8.53031758,12.7662382 C8.48416532,12.7200964 8.45829214,12.6575297 8.45840138,12.59233 L8.45840138,10.3834516 C8.45840138,10.2477323 8.5684586,10.1378838 8.70443584,10.1378838 L10.9080488,10.1378838 C11.0434089,10.1378838 11.1540833,10.2477323 11.1540833,10.3834516 L11.1540833,12.59233 C11.1540833,12.72846 11.0434089,12.8383085 10.9080488,12.8383085 Z M8.95005887,12.3469675 L10.6616029,12.3469675 L10.6616029,10.6290194 L8.95005887,10.6290194 L8.95005887,12.3469675 Z M4.84687884,12.8383085 L2.64408872,12.8383085 C2.50831719,12.8383085 2.39784854,12.72846 2.39784854,12.59233 L2.39784854,10.3834516 C2.39784854,10.2477323 2.50831719,10.1378838 2.64408872,10.1378838 L4.84687884,10.1378838 C4.98244465,10.1378838 5.0929133,10.2477323 5.0929133,10.3834516 L5.0929133,12.59233 C5.0929133,12.72846 4.98244465,12.8383085 4.84687884,12.8383085 Z M2.89012318,12.3469675 L4.60063866,12.3469675 L4.60063866,10.6290194 L2.89012318,10.6290194 L2.89012318,12.3469675 Z M8.70443584,7.92777344 L10.9080488,7.92777344 L10.9080488,8.4191144 L8.70443584,8.4191144 L8.70443584,7.92777344 Z M8.70443584,5.71868973 L10.9080488,5.71868973 L10.9080488,6.21003068 L8.70443584,6.21003068 L8.70443584,5.71868973 Z" id="Shape"></path>
                <path d="M12.5561406,13.0323383 L0.444270486,13.0323383 C0.198934132,13.031886 0.00022622051,12.8333722 0,12.5885017 L0,0.443426173 C0,0.19903905 0.199212448,0 0.444270486,0 L7.05035263,0 C7.29520508,0 7.49441753,0.198833855 7.49441753,0.443426173 L7.49441753,3.31246122 L12.5559351,3.31246122 C12.8007875,3.31246122 13,3.51150028 13,3.7558874 L13,12.5882966 C13.0001138,12.8331806 12.8014906,13.0318855 12.5561406,13.0323383 Z M11.3468861,12.6363122 L12.5561406,12.6363122 C12.568843,12.6363675 12.5810382,12.6313415 12.5900008,12.6223573 C12.5989635,12.6133731 12.6039466,12.6011796 12.6038365,12.5885017 L12.6038365,3.7558874 C12.6038365,3.72959576 12.5824823,3.70828218 12.5561406,3.70828218 L7.49462312,3.70828218 L7.49462312,3.80369781 L12.5082392,3.80369781 L12.5082392,12.5413069 L11.3495587,12.5413069 L11.3495587,12.5885017 C11.3495587,12.6047121 11.3487364,12.6209225 11.3468861,12.6363122 Z M8.65535943,12.5411017 L8.65535943,12.5907778 C8.65535943,12.6190715 8.67674033,12.6411017 8.70305529,12.6411017 L10.9052883,12.6411017 C10.9179737,12.6411018 10.9301366,12.635793 10.9390872,12.6263492 C10.9480379,12.6169053 10.9530388,12.6041046 10.9529841,12.5907778 L10.9529846,12.5411017 L8.65535943,12.5411017 Z M7.4919505,12.6413069 L8.26125183,12.6413069 C8.25969097,12.6245812 8.25886775,12.6077886 8.2587848,12.5909829 L8.2587848,12.5413069 L7.49441753,12.5413069 L7.49441753,12.5909829 C7.49462312,12.6080456 7.49380078,12.6251082 7.4919505,12.6413069 Z M7.0022456,12.3432938 L7.0022456,12.5882966 C7.0022456,12.641442 7.09804849,12.641442 7.09804849,12.5882966 L7.09804849,3.70828218 L7.05055822,3.70828218 C7.03785393,3.70822764 7.02564828,3.71321257 7.01662644,3.7221403 C7.00760459,3.73106804 7.00250559,3.74320725 7.00245119,3.7558874 L6.60628773,3.7558874 L6.60628773,0.886647151 L0.888540971,0.886647151 L0.888540971,12.1452808 L2.20243855,12.1452808 L2.20243855,10.3808098 C2.20243855,10.1362175 2.401651,9.93738367 2.64670904,9.93738367 L4.84811966,9.93738367 C5.09297212,9.93738367 5.29239015,10.1362175 5.29239015,10.3808098 L5.29239015,12.1452808 L6.60628773,12.1452808 L6.60628773,3.7558874 L7.00245119,3.7558874 L7.00245119,12.3432938 L7.0022456,12.3432938 Z M5.28971754,12.6413069 L6.60875476,12.6413069 C6.60691956,12.6246024 6.60602713,12.6077983 6.60608215,12.5909829 L6.60608215,12.5413069 L5.29218456,12.5413069 L5.29218456,12.5909829 C5.29239015,12.6080456 5.29136222,12.6251082 5.28971754,12.6413069 Z M2.59880759,12.5411017 L2.59880759,12.5907778 C2.59880759,12.6190715 2.6201885,12.6411017 2.64650345,12.6411017 L4.84791408,12.6411017 C4.86059951,12.6411018 4.8727624,12.635793 4.88171304,12.6263492 C4.89066368,12.6169053 4.89566462,12.6041046 4.89560994,12.5907778 L4.89561038,12.5411017 L2.59880759,12.5411017 Z M0.444270486,0.395615762 C0.431620757,0.395615762 0.419489129,0.400631297 0.41054442,0.409559007 C0.401599711,0.418486717 0.396574626,0.43059529 0.396574626,0.443220978 L0.396574626,12.5882966 C0.396574626,12.6151771 0.417955529,12.636107 0.444270486,12.636107 L2.20490558,12.636107 C2.20307038,12.6202367 2.20217795,12.604272 2.20223297,12.5882966 L2.20223297,12.5411017 L0.492171931,12.5411017 L0.492171931,0.491031389 L7.00245119,0.491031389 L7.00245119,3.31492356 C7.01848686,3.313282 7.03452254,3.31246122 7.05055822,3.31246122 L7.09804849,3.31246122 L7.09804849,0.443426173 C7.09804874,0.417214463 7.07681959,0.395933938 7.05055822,0.395820957 L0.444270486,0.395820957 L0.444270486,0.395615762 Z M11.3495587,12.145486 L12.1116646,12.145486 L12.1116646,4.19931357 L7.49462312,4.19931357 L7.49462312,12.145486 L8.25899039,12.145486 L8.25899039,10.381015 C8.25899039,10.1364227 8.45840842,9.93758887 8.70326087,9.93758887 L10.9054938,9.93758887 C11.1503463,9.93758887 11.3495587,10.1364227 11.3495587,10.381015 L11.3495587,12.145486 Z M10.8575924,12.145486 L10.9531897,12.145486 L10.9531897,10.381015 C10.9530771,10.3547701 10.9317887,10.3335222 10.9054938,10.3334098 L8.70326087,10.3334098 C8.67691918,10.3334098 8.65556501,10.3547234 8.65556501,10.381015 L8.65556501,12.145486 L8.75075115,12.145486 L8.75075115,10.4290306 L10.857798,10.4290306 L10.857798,12.145486 L10.8575924,12.145486 Z M9.14712019,12.145486 L10.4614289,12.145486 L10.4614289,10.8244412 L9.14712019,10.8244412 L9.14712019,12.145486 Z M4.80021822,12.145486 L4.89581552,12.145486 L4.89581552,10.381015 C4.89570291,10.3547701 4.87441457,10.3335222 4.84811966,10.3334098 L2.64670904,10.3334098 C2.62036734,10.3334098 2.59901318,10.3547234 2.59901318,10.381015 L2.59901318,12.145486 L2.69461048,12.145486 L2.69461048,10.4290306 L4.8004238,10.4290306 L4.8004238,12.145486 L4.80021822,12.145486 Z M3.09097952,12.145486 L4.40384918,12.145486 L4.40384918,10.8244412 L3.09097952,10.8244412 L3.09097952,12.145486 Z M11.1038839,8.61531295 L8.50487077,8.61531295 L8.50487077,7.72928139 L11.1038839,7.72928139 L11.1038839,8.61531295 Z M8.90144539,8.22510234 L10.7071037,8.22510234 L10.7071037,8.12510234 L8.90144539,8.12510234 L8.90144539,8.22510234 Z M5.29239015,8.36989986 L4.40384918,8.36989986 L4.40384918,2.45413097 L5.29239015,2.45413097 L5.29239015,8.36989986 Z M4.80021822,7.97428409 L4.90021822,7.97428409 L4.90021822,2.84995193 L4.80021822,2.84995193 L4.80021822,7.97428409 Z M3.09097952,8.36989986 L2.20264414,8.36989986 L2.20264414,2.45413097 L3.09097952,2.45413097 L3.09097952,8.36989986 Z M2.59880759,7.97428409 L2.69880759,7.97428409 L2.69880759,2.84995193 L2.59880759,2.84995193 L2.59880759,7.97428409 Z M11.1038839,6.40803144 L8.50487077,6.40803144 L8.50487077,5.52138429 L11.1038839,5.52138429 L11.1038839,6.40803144 Z M8.90144539,6.01700005 L10.7071037,6.01700005 L10.7071037,5.91700005 L8.90144539,5.91700005 L8.90144539,6.01700005 Z" id="Shape"></path>
            </g>
        </g>
    </g>
</svg>