<?xml version="1.0" encoding="UTF-8"?>
<svg width="14px" height="14px" viewBox="0 0 14 14" version="1.1" xmlns="http://www.w3.org/2000/svg" xmlns:xlink="http://www.w3.org/1999/xlink">
    <!-- Generator: Sketch 49.3 (51167) - http://www.bohemiancoding.com/sketch -->
    <title>医生</title>
    <desc>Created with Sketch.</desc>
    <defs></defs>
    <g id="设置管理" stroke="none" stroke-width="1" fill="none" fill-rule="evenodd">
        <g id="图标" transform="translate(-95.000000, -348.000000)" fill="#2ACDC8" fill-rule="nonzero">
            <g id="医生" transform="translate(95.200000, 348.000000)">
                <path d="M13,12.7889699 C13,10.9501596 11.9234618,9.35092378 10.3696134,8.58945742 C10.4451476,8.76242196 10.4840999,8.94913613 10.4840238,9.13787331 L10.4840238,9.3001612 C11.2330102,9.45753212 11.7998819,10.1254097 11.7998819,10.9193835 L11.7998819,11.8092314 C11.9135859,11.9071831 11.9856534,12.0520885 11.9856534,12.2139193 C11.9856534,12.5088824 11.7465274,12.7479859 11.4515674,12.7479859 C11.1565935,12.7479859 10.9174675,12.5088686 10.9174675,12.2139193 C10.9174675,12.0361187 11.0044526,11.8787339 11.1380745,11.781641 L11.1380745,10.8726238 C11.1380745,10.3332108 10.6967357,9.89188803 10.157317,9.89188803 L10.156666,9.89188803 C9.61723337,9.89188803 9.17589454,10.3332108 9.17589454,10.8726238 L9.17589454,11.7994252 C9.29628864,11.8973492 9.37327327,12.0466313 9.37327327,12.2139193 C9.37327327,12.5088824 9.13414721,12.7479859 8.83917336,12.7479859 C8.54421337,12.7479859 8.30508731,12.5088686 8.30508731,12.2139193 C8.30508731,12.0520885 8.37718249,11.907197 8.49084493,11.8092314 L8.49084493,10.9193835 C8.49084493,10.1082627 9.08263483,9.42905521 9.85568072,9.29103364 C9.82540214,8.89245391 9.66370394,8.52926256 9.41416183,8.24465972 C9.15916593,8.18330818 8.89941893,8.1437285 8.6377224,8.12634759 C8.50946086,11.0702308 7.60377646,13.3517351 6.50545042,13.3517351 C5.40702743,13.3517351 4.50131533,11.0698707 4.37315074,8.12565506 C4.36745792,8.12601518 4.36182051,8.1265692 4.35614154,8.12695702 C4.08946557,8.44086781 3.92789204,8.8464144 3.92789204,9.288125 L3.92789204,10.6375924 C4.30737168,10.7770821 4.57809219,11.1417001 4.57809219,11.56956 C4.57809219,12.1177959 4.13363685,12.562235 3.58538108,12.562235 C3.03712531,12.562235 2.59266998,12.1177959 2.59266998,11.56956 C2.59266998,11.118805 2.89323969,10.7384527 3.30479857,10.6173704 L3.30479857,8.99852208 C3.30479857,8.72796377 3.38388857,8.47510658 3.51967128,8.26137743 C1.50254381,8.77849089 0,10.6165256 0,12.7889699 L0,12.9337506 L0.00991741525,12.9337506 C0.00736880574,12.9451082 0.00559586,12.9565349 0.00559586,12.9680171 C0.00559586,13.5133582 2.91447348,13.9554566 6.502791,13.9554566 C10.0911085,13.9554566 13,13.5133443 13,12.9680033 C13,12.9565349 12.9982409,12.945122 12.9956784,12.9337506 L13,12.9337506 L13,12.7889699 Z M6.57804424,2.99543527 C4.9669352,2.99543527 3.66085594,3.49249301 3.66085594,4.10566062 C3.66085594,4.12660278 3.66253192,4.14739258 3.66553762,4.16805773 L3.66085594,4.16805773 L4.27710694,7.0652366 C4.28616932,7.11616485 4.29693306,7.16677568 4.3093801,7.21698415 L4.31106994,7.22493442 L4.31134696,7.22493442 C4.56624946,8.24024136 5.48926164,8.9978988 6.58077291,8.9978988 L6.58107764,8.9978988 C7.74768979,8.9978988 8.72193733,8.13251112 8.89360834,7.01199476 L9.49519099,4.16804388 L9.49052316,4.16804388 C9.49352885,4.14740643 9.49519099,4.12658893 9.49519099,4.10564677 C9.49519099,3.49249301 8.18912558,2.99543527 6.57804424,2.99543527 Z M6.5635144,2.77870054 C7.99581909,2.77870054 9.21171359,3.25505157 9.64503261,3.91648865 L9.76030178,3.9165025 L9.76030178,1.13778811 L9.75974774,1.13778811 C9.75994165,1.13264952 9.76030178,1.12749709 9.76030178,1.12231695 C9.76030178,0.502487186 8.33576758,0 6.57851518,0 C4.82126278,0 3.39671472,0.502473335 3.39671472,1.12231695 C3.39671472,1.12748324 3.39707485,1.13264952 3.39726877,1.13778811 L3.39671472,1.13778811 L3.39671472,3.9165025 L3.48199618,3.9165025 C3.91530135,3.25505157 5.13120971,2.77871439 6.5635144,2.77871439 L6.5635144,2.77870054 Z M5.68109991,1.32064419 C5.68109991,1.20093316 5.77906901,1.10296761 5.89881211,1.10296761 L6.36324078,1.10296761 L6.36324078,0.638597376 C6.36324078,0.518872487 6.46119604,0.420893095 6.58092528,0.420893095 C6.70065452,0.420893095 6.79862362,0.518858636 6.79862362,0.638583525 L6.79862362,1.10299532 L7.2630523,1.10299532 C7.38279539,1.10299532 7.4807645,1.20096086 7.4807645,1.32068575 C7.4807645,1.44041063 7.38280925,1.53839003 7.2630523,1.53839003 L6.79862362,1.53839003 L6.79862362,2.00280182 C6.79862362,2.1225267 6.70066837,2.2204784 6.58092528,2.2204784 C6.46118218,2.2204784 6.36324078,2.1225267 6.36324078,2.00280182 L6.36324078,1.53837617 L5.89881211,1.53837617 C5.77906901,1.53837617 5.68109991,1.44039678 5.68109991,1.32067189 L5.68109991,1.32064419 Z" id="Shape"></path>
            </g>
        </g>
    </g>
</svg>