<?xml version="1.0" encoding="UTF-8"?>
<svg width="13px" height="16px" viewBox="0 0 13 16" version="1.1" xmlns="http://www.w3.org/2000/svg" xmlns:xlink="http://www.w3.org/1999/xlink">
    <!-- Generator: Sketch 49.3 (51167) - http://www.bohemiancoding.com/sketch -->
    <title>药品 (1)</title>
    <desc>Created with Sketch.</desc>
    <defs></defs>
    <g id="设置管理" stroke="none" stroke-width="1" fill="none" fill-rule="evenodd">
        <g id="图标" transform="translate(-596.000000, -230.000000)" fill="#2ACDC8" fill-rule="nonzero">
            <g id="药品-(1)" transform="translate(596.000000, 230.000000)">
                <path d="M8.81851364,11.4187869 L8.8144282,11.4106846 C8.71637761,11.254715 8.56113085,11.1372314 8.36707239,11.0886175 C7.97282732,10.9913897 7.57449681,11.2283825 7.47644622,11.6152682 C7.42742093,11.8097238 7.46214718,12.0021538 7.55815505,12.1601491 L7.56019777,12.1621746 L8.81851364,11.4187869 Z M9.7377379,7.78894846 L9.73365246,7.78084614 C9.63560187,7.62487652 9.4803551,7.50536733 9.28629665,7.458779 C8.89205158,7.36155118 8.49372107,7.59854399 8.39567048,7.98542967 C8.34664519,8.17785973 8.38137144,8.37231536 8.4773793,8.53031056 L8.47942202,8.53233614 L9.7377379,7.78894846 Z M8.81034276,9.33446563 C8.15462945,9.17241927 7.75629894,8.51815709 7.91971659,7.87199722 C8.08313423,7.22583736 8.74701842,6.83084935 9.40273172,6.99289571 C10.058445,7.15494207 10.4567755,7.80920426 10.2933579,8.45536412 C10.131983,9.10152399 9.46605606,9.49448641 8.81034276,9.33446563 Z M10.6528767,4.16316113 L10.6487913,4.15505881 C10.5507407,4.00111477 10.3954939,3.88160558 10.2014355,3.83299167 C9.8071904,3.73576386 9.40885988,3.97275666 9.3108093,4.36166793 C9.261784,4.55409798 9.29651025,4.74855361 9.39251812,4.90654881 L9.39456084,4.90857439 L10.6528767,4.16316113 Z M9.72752429,5.70665272 C9.07181099,5.54460636 8.67348048,4.89034418 8.83689812,4.24418431 C9.00031577,3.59802445 9.66419996,3.20303644 10.3199133,3.3650828 C10.9756266,3.52712917 11.3739571,4.18139135 11.2105394,4.82755121 C11.0471218,5.47371108 10.3832376,5.86869908 9.72752429,5.70665272 Z M4.18970882,10.2804113 L4.18562338,10.2743345 C4.08961551,10.1183649 3.93232603,10.0008813 3.73826758,9.95226738 C3.34402251,9.85503956 2.94569199,10.0920324 2.84764141,10.4789181 C2.79861611,10.6713481 2.83334236,10.8658037 2.92935023,11.0237989 L2.93139295,11.0258245 L4.18970882,10.2804113 Z M3.2643564,11.8259284 C2.6086431,11.6638821 2.21031259,11.0096199 2.37373023,10.36346 C2.53714788,9.71730016 3.20103207,9.32231215 3.85674537,9.48435851 C4.51245867,9.64640488 4.91078918,10.3006671 4.74737154,10.9468269 C4.58395389,11.5929868 3.92006971,11.9859492 3.2643564,11.8259284 Z M5.10689036,6.65057278 L5.10280492,6.64247046 C5.00475433,6.48650083 4.84950757,6.36699164 4.65544911,6.32040331 C4.26120404,6.2231755 3.86287353,6.4601683 3.76482294,6.84705399 C3.71579765,7.03948404 3.7505239,7.23393967 3.84653177,7.39193488 L3.84857449,7.39396046 L5.10689036,6.65057278 Z M4.18153794,8.19406436 C3.52582464,8.03404358 3.12749412,7.37775582 3.29091177,6.73159596 C3.45432942,6.08543609 4.1182136,5.69044809 4.77392691,5.85249445 C5.42964021,6.01454081 5.82797072,6.66880299 5.66455308,7.31496286 C5.50113543,7.9631483 4.83725124,8.35611073 4.18153794,8.19406436 Z M6.0240719,3.02478545 L6.01998646,3.01668313 C5.92193587,2.86273909 5.7666891,2.74322989 5.57263065,2.69461599 C5.17838558,2.59738817 4.78005507,2.83438097 4.68200448,3.22329224 C4.63297919,3.41572229 4.66770544,3.61017793 4.7637133,3.76817313 L4.76575602,3.77019871 L6.0240719,3.02478545 Z M5.09871948,4.56827704 C4.44300617,4.40623067 4.04467566,3.75196849 4.20809331,3.10580863 C4.37151095,2.45964876 5.03539514,2.06668634 5.69110844,2.22670712 C6.34682175,2.38875348 6.74515226,3.04301566 6.58173461,3.68917553 C6.41831697,4.33533539 5.75443278,4.72829782 5.09871948,4.56827704 Z M7.89316122,12.9643041 C7.23744792,12.8022578 6.8391174,12.1479956 7.00253505,11.5018357 C7.1659527,10.8556758 7.82983688,10.4606878 8.48555019,10.6227342 C9.14126349,10.7847806 9.539594,11.4390427 9.37617636,12.0852026 C9.21275871,12.7313625 8.54887452,13.1243249 7.89316122,12.9643041 Z" id="Shape" opacity="0.5"></path>
                <path d="M8.57141095,15.5900569 L1.01518013,13.7083268 C0.657584909,13.6186235 0.369070583,13.3923266 0.192304764,13.0987522 C0.015538945,12.8072166 -0.0494783678,12.4463648 0.0399204373,12.0916291 L2.80721981,1.01327423 C2.89661862,0.656499826 3.12417921,0.367002883 3.41878891,0.191673749 C3.71136682,0.0163446143 4.07302562,-0.0488941334 4.42858905,0.0387704338 L11.9848199,1.91846185 C12.3424151,2.00816513 12.6309294,2.23446204 12.8076952,2.5280364 C12.9844611,2.81957206 13.0494784,3.18042388 12.9600796,3.53515957 L10.1927802,14.6155531 C10.1033814,14.9723275 9.87582079,15.2618245 9.58121109,15.4371536 C9.28863318,15.6145215 8.92697438,15.6777215 8.57141095,15.5900569 Z M1.21429565,13.009049 L8.74411319,14.8826243 C8.90665647,14.9233985 9.07326333,14.8928178 9.20736154,14.8133081 C9.34145975,14.7337984 9.4430493,14.6033209 9.48368512,14.4422627 L12.2509845,3.36390786 C12.2916203,3.20081099 12.2611435,3.03567541 12.1819036,2.90112049 C12.1026638,2.76860428 11.9705973,2.66463003 11.8100858,2.62589452 L4.25385502,0.744164394 C4.09131174,0.703390176 3.92470488,0.733970839 3.79060667,0.813480563 C3.65650846,0.895028998 3.55491891,1.02346778 3.51428309,1.18656465 L0.751047296,12.240455 C0.749015505,12.2547259 0.744951923,12.2710356 0.740888341,12.2853066 C0.708379684,12.4422873 0.73885655,12.5972294 0.816064609,12.7256682 C0.893272668,12.8541069 1.01721192,12.9540038 1.16959625,12.9968167 C1.18585058,13.0008941 1.20007311,13.0049715 1.21429565,13.009049 Z M7.64694603,3.9714437 L7.88263379,3.02955927 C7.90701528,2.93170115 7.84606155,2.83384303 7.74853558,2.8093785 C7.65100962,2.78491397 7.55145186,2.84403659 7.52910215,2.94189471 L7.2934144,3.88377913 C7.2690329,3.98163725 7.32998663,4.07949537 7.4275126,4.1039599 C7.52503857,4.12842443 7.62256454,4.06930182 7.64694603,3.9714437 Z M5.89554217,10.9805317 L6.14545247,9.97952462 C6.16983396,9.8816665 6.10888023,9.78380838 6.01135426,9.75934385 C5.91382829,9.73487931 5.81427053,9.79400193 5.79192083,9.89186005 L5.54201053,10.8949058 C5.51762904,10.9927639 5.57858277,11.090622 5.67610874,11.1150866 C5.77363471,11.1375124 5.87116068,11.0783898 5.89554217,10.9805317 Z M6.33847261,9.21296933 L6.58838291,8.2119623 C6.6127644,8.11410418 6.55181067,8.01624605 6.4542847,7.99178152 C6.35675873,7.96731699 6.25720097,8.02643961 6.23485127,8.12429773 L5.98494098,9.12530477 C5.96055948,9.22316289 6.02151321,9.32102101 6.11903918,9.34548554 C6.21453336,9.36995007 6.31409112,9.31082745 6.33847261,9.21296933 Z M6.76514873,7.50249092 L7.01505902,6.50352259 C7.03944052,6.40566447 6.97848679,6.30780635 6.88096082,6.28334182 C6.78343485,6.25887729 6.68387709,6.32003861 6.66152739,6.41585802 L6.41161709,7.41482635 C6.3872356,7.51268447 6.44818933,7.61054259 6.5457153,7.63500712 C6.64120948,7.65947165 6.74076724,7.60034904 6.76514873,7.50249092 Z M5.46886606,12.6889714 L5.70455381,11.7470869 C5.72893531,11.6492288 5.66798158,11.5513707 5.57045561,11.5269062 C5.47292964,11.5024416 5.37337188,11.5615643 5.35102218,11.6594224 L5.11533442,12.6033455 C5.09095292,12.7012036 5.15190666,12.7990617 5.24943262,12.8235263 C5.34695859,12.8459521 5.44448456,12.7868295 5.46886606,12.6889714 Z M7.20604738,5.73696731 L7.45595768,4.73596027 C7.48033917,4.63810215 7.41938544,4.54024403 7.32185947,4.5157795 C7.2243335,4.49131497 7.12477574,4.55043758 7.10242604,4.6482957 L6.85251574,5.64930274 C6.82813425,5.74716086 6.88908798,5.84501898 6.98661395,5.86948351 C7.08413992,5.89394804 7.18166589,5.83482543 7.20604738,5.73696731 Z" id="Shape"></path>
            </g>
        </g>
    </g>
</svg>