<?xml version="1.0" encoding="UTF-8"?>
<svg width="13px" height="14px" viewBox="0 0 13 14" version="1.1" xmlns="http://www.w3.org/2000/svg" xmlns:xlink="http://www.w3.org/1999/xlink">
    <!-- Generator: Sketch 49.3 (51167) - http://www.bohemiancoding.com/sketch -->
    <title>药品</title>
    <desc>Created with Sketch.</desc>
    <defs></defs>
    <g id="设置管理" stroke="none" stroke-width="1" fill="none" fill-rule="evenodd">
        <g id="图标" transform="translate(-322.000000, -231.000000)" fill="#2ACDC8" fill-rule="nonzero">
            <g id="药品" transform="translate(322.000000, 231.000000)">
                <path d="M12.2690015,8.88108595 C11.8003288,8.3765609 11.165385,8.06948286 10.4811511,8.01637642 L10.4634722,8.01501472 L2.73216199,8.00742809 C1.22564847,8.00742809 0,9.23468423 0,10.7432016 C0,12.2516912 1.22564847,13.4789474 2.73216199,13.4789474 L2.7326338,13.4789474 L10.4457932,13.4713607 L10.4811234,13.4699712 C11.1653573,13.4168926 11.800301,13.1098423 12.2690015,12.6053173 C12.7403941,12.0979021 13,11.4365866 13,10.7432016 C13,10.0498166 12.7403941,9.38852894 12.2690015,8.88108595 Z M6.57887534,12.5467918 L2.73182895,12.5505713 C1.73675626,12.5503767 0.92718772,11.7396629 0.92718772,10.7432294 C0.92718772,9.74665696 1.73689503,8.93585978 2.73169019,8.93585978 L6.57887534,8.9396392 L6.57887534,12.5467918 Z M1.20846908,7.13343675 C1.67392242,7.47372368 2.24636536,7.66113854 2.820307,7.66119412 L2.82041801,7.66119412 C3.0170513,7.66119412 3.2145727,7.6396014 3.40745928,7.59699953 L3.42474969,7.59319232 L10.8256826,5.35446836 C12.2674196,4.91683352 13.0847868,3.38630655 12.6476975,1.94265071 C12.4742106,1.36959584 12.1278474,0.880466381 11.6459918,0.528063068 C11.1803996,0.187526028 10.6078457,0 10.0338486,0 C9.76484427,0.000144425616 9.49733362,0.0400357091 9.23996072,0.118384837 L1.86073098,2.36636282 L1.82728806,2.3779512 C1.18784825,2.627532 0.66919152,3.1058512 0.366845285,3.72481493 C0.0627505818,4.34733576 0.00593924126,5.05564391 0.206818813,5.71921037 C0.380333469,6.29218187 0.726696697,6.78120017 1.20846908,7.13343675 Z M9.5094191,1.00674354 C9.67942982,0.954946807 9.85614233,0.92854937 10.0338486,0.928403903 C10.8216029,0.928403903 11.5315642,1.45624465 11.7603915,2.21199011 C12.0491108,3.16571058 11.5091394,4.17684492 10.5571124,4.46583176 L6.87436647,5.5798164 L5.82922653,2.12787018 L9.5094191,1.00674354 Z" id="Shape"></path>
            </g>
        </g>
    </g>
</svg>