<?xml version="1.0" encoding="UTF-8"?>
<svg width="13px" height="13px" viewBox="0 0 13 13" version="1.1" xmlns="http://www.w3.org/2000/svg" xmlns:xlink="http://www.w3.org/1999/xlink">
    <!-- Generator: Sketch 49.3 (51167) - http://www.bohemiancoding.com/sketch -->
    <title>检查服务</title>
    <desc>Created with Sketch.</desc>
    <defs></defs>
    <g id="设置管理" stroke="none" stroke-width="1" fill="none" fill-rule="evenodd">
        <g id="图标" transform="translate(-391.000000, -232.000000)" fill="#2ACDC8" fill-rule="nonzero">
            <g id="检查服务" transform="translate(391.000000, 232.000000)">
                <path d="M0.489411765,6.7124915 L1.40705882,6.7124915 L1.40705882,1.13407391 C1.40705882,0.827567445 1.52941176,0.521060984 1.74352941,0.337157107 C1.95764706,0.122602584 2.23294118,0 2.53882353,0 L10.4611765,0 C10.7670588,0 11.0729412,0.122602584 11.2870588,0.337157107 C11.4705882,0.55171163 11.5929412,0.827567445 11.5929412,1.13407391 L11.5929412,6.7124915 L12.5105882,6.7124915 C12.7858824,6.7124915 13,6.92704602 13,7.20290184 L13,11.7698481 C13,12.0457039 12.7858824,12.2909091 12.5105882,12.2909091 L0.489411765,12.2909091 C0.214117647,12.2909091 0,12.0763546 0,11.7698481 L0,7.23355248 C0,6.95769667 0.214117647,6.7124915 0.489411765,6.7124915 Z M1.98823529,6.7124915 L3.42588235,6.7124915 C3.70117647,6.7124915 3.91529412,6.92704602 3.94588235,7.17225119 C4.03764706,7.78526411 4.37411765,8.33697574 4.83294118,8.7047835 C5.29176471,9.1032419 5.87294118,9.34844706 6.54588235,9.34844706 C7.18823529,9.34844706 7.76941176,9.1032419 8.22823529,8.7047835 C8.68705882,8.3063251 9.02352941,7.75461347 9.11529412,7.14160054 C9.14588235,6.89639538 9.36,6.7124915 9.60470588,6.7124915 L11.0423529,6.7124915 L11.0423529,1.13407391 C11.0423529,0.980820676 10.9811765,0.858218091 10.8894118,0.766266153 L10.8894118,0.735615507 C10.7976471,0.643663568 10.6447059,0.582362276 10.4917647,0.582362276 L2.53882353,0.582362276 C2.38588235,0.582362276 2.26352941,0.643663568 2.17176471,0.735615507 C2.08,0.827567445 2.01882353,0.980820676 2.01882353,1.13407391 L2.01882353,6.7124915 L1.98823529,6.7124915 Z M3.02823529,7.72396282 L0.978823529,7.72396282 L0.978823529,11.3100884 L12.0211765,11.3100884 L12.0211765,7.72396282 L9.97176471,7.72396282 C9.78823529,8.42892768 9.36,9.0419406 8.84,9.50170029 C8.19764706,10.0534119 7.37176471,10.3599184 6.48470588,10.3599184 C5.59764706,10.3599184 4.77176471,10.0534119 4.12941176,9.50170029 C3.64,9.0419406 3.21176471,8.42892768 3.02823529,7.72396282 Z" id="Shape"></path>
                <path d="M2.90328587,4.68835341 C2.81073384,4.68835341 2.71818182,4.59722526 2.71818182,4.50609712 C2.71818182,4.41496897 2.81073384,4.32384082 2.90328587,4.32384082 L3.82880613,4.32384082 C3.85965681,3.65556773 4.16816356,3.04804673 4.63092369,2.59240599 C5.09368383,2.13676524 5.71069733,1.8633808 6.38941219,1.8026287 L6.38941219,0.891347207 C6.38941219,0.800219058 6.48196422,0.709090909 6.57451625,0.709090909 C6.66706827,0.709090909 6.7596203,0.800219058 6.7596203,0.891347207 L6.7596203,1.8026287 C7.43833516,1.83300475 8.05534867,2.13676524 8.5181088,2.59240599 C8.95001825,3.04804673 9.25852501,3.65556773 9.28937568,4.29346477 L10.2148959,4.29346477 C10.307448,4.29346477 10.4,4.38459292 10.4,4.47572107 C10.4,4.56684922 10.307448,4.65797736 10.2148959,4.65797736 L9.28937568,4.65797736 C9.25852501,5.32625046 8.95001825,5.93377145 8.48725812,6.38941219 C8.02449799,6.84505294 7.40748448,7.11843739 6.72876962,7.17918949 L6.72876962,8.09047097 C6.72876962,8.18159912 6.6362176,8.27272727 6.54366557,8.27272727 C6.45111355,8.27272727 6.35856152,8.18159912 6.35856152,8.09047097 L6.35856152,7.17918949 C5.67984666,7.14881344 5.06283315,6.84505294 4.60007302,6.38941219 L4.60007302,6.35903614 C4.13731289,5.9033954 3.85965681,5.32625046 3.82880613,4.65797736 L2.90328587,4.65797736 L2.90328587,4.68835341 Z M4.44581964,4.32384082 L5.37133991,4.32384082 C5.46389193,4.32384082 5.55644396,4.41496897 5.55644396,4.50609712 C5.55644396,4.59722526 5.46389193,4.68835341 5.37133991,4.68835341 L4.44581964,4.68835341 C4.47667032,5.17437021 4.72347572,5.63001095 5.03198248,5.9641475 C5.37133991,6.29828405 5.83410004,6.51091639 6.35856152,6.57166849 L6.35856152,5.660387 C6.35856152,5.56925885 6.45111355,5.4781307 6.54366557,5.4781307 C6.6362176,5.4781307 6.72876962,5.56925885 6.72876962,5.660387 L6.72876962,6.57166849 C7.25323111,6.54129244 7.68514056,6.29828405 8.05534867,5.9641475 C8.3947061,5.63001095 8.61066083,5.17437021 8.67236218,4.65797736 L7.74684191,4.65797736 C7.65428989,4.65797736 7.56173786,4.56684922 7.56173786,4.47572107 C7.56173786,4.38459292 7.65428989,4.29346477 7.74684191,4.29346477 L8.67236218,4.29346477 C8.6415115,3.80744797 8.3947061,3.35180723 8.05534867,3.01767068 C7.71599124,2.68353414 7.25323111,2.47090179 6.72876962,2.41014969 L6.72876962,3.32143118 C6.72876962,3.41255933 6.6362176,3.50368748 6.54366557,3.50368748 C6.45111355,3.50368748 6.35856152,3.41255933 6.35856152,3.32143118 L6.35856152,2.41014969 C5.83410004,2.47090179 5.37133991,2.68353414 5.03198248,3.01767068 C4.72347572,3.38218328 4.47667032,3.83782402 4.44581964,4.32384082 Z M8.5181088,2.62278204 L8.5181088,3.01767068 C8.65144213,2.92654253 8.65144213,2.74428624 8.5181088,2.62278204 Z M4.63837167,6.38941219 L4.63837167,5.99452355 C4.50503834,6.11602775 4.50503834,6.29828405 4.63837167,6.38941219 Z" id="Shape"></path>
            </g>
        </g>
    </g>
</svg>