<?xml version="1.0" encoding="UTF-8"?>
<svg width="13px" height="15px" viewBox="0 0 13 15" version="1.1" xmlns="http://www.w3.org/2000/svg" xmlns:xlink="http://www.w3.org/1999/xlink">
    <!-- Generator: Sketch 49.3 (51167) - http://www.bohemiancoding.com/sketch -->
    <title>租赁费用报表</title>
    <desc>Created with Sketch.</desc>
    <defs></defs>
    <g id="设置管理" stroke="none" stroke-width="1" fill="none" fill-rule="evenodd">
        <g id="图标" transform="translate(-61.000000, -454.000000)" fill="#2ACDC8" fill-rule="nonzero">
            <g id="租赁费用报表" transform="translate(61.000000, 454.000000)">
                <path d="M11.2041559,9.37561211 C11.1083499,9.30711551 10.9755138,9.32939083 10.907081,9.4251747 L9.9768114,10.7300907 L9.0465418,9.42531392 C8.97810898,9.32939083 8.8452034,9.30711551 8.74946691,9.37561211 C8.65379991,9.44410872 8.6316374,9.57741258 8.69993127,9.67326606 L9.5086197,10.8075671 L8.98366697,10.8075671 C8.86597641,10.8075671 8.77065677,10.9030725 8.77065677,11.0208532 C8.77065677,11.1387732 8.86597641,11.2342786 8.98366697,11.2342786 L9.76387067,11.2342786 L9.76387067,11.4714412 L8.98366697,11.4714412 C8.86597641,11.4714412 8.77065677,11.5670858 8.77065677,11.6848666 C8.77065677,11.8027169 8.86597641,11.898292 8.98366697,11.898292 L9.76387067,11.898292 L9.76387067,12.4239895 C9.76387067,12.5417703 9.85912083,12.6373453 9.9768114,12.6373453 C10.0944325,12.6373453 10.1897521,12.5417703 10.1897521,12.4239895 L10.1897521,11.898292 L10.9699558,11.898292 C11.0875769,11.898292 11.1828965,11.8027169 11.1828965,11.6849362 C11.1828965,11.5670858 11.0876464,11.4714412 10.9699558,11.4714412 L10.1897521,11.4714412 L10.1897521,11.2342786 L10.9699558,11.2342786 C11.0876464,11.2342786 11.1828965,11.1387732 11.1828965,11.0208532 C11.1828965,10.9030725 11.0876464,10.8075671 10.9699558,10.8075671 L10.4450031,10.8075671 L11.2536915,9.67326606 C11.3219854,9.57741258 11.2998229,9.44410872 11.2041559,9.37561211 Z M6.71462897,11.7551731 C6.52857505,11.5729331 6.32015019,11.4507669 6.07149934,11.4463118 C6.06702516,11.4462422 6.06239813,11.4461726 6.05792394,11.4461726 C5.5238422,11.4461726 5.1494,11.9887855 4.78733824,12.5134388 C4.65568321,12.7041016 4.51955399,12.901447 4.3933458,13.0447748 C4.27715589,13.1767561 4.22681434,13.2294511 4.18575464,13.2275716 C4.15861773,13.2261794 4.10143984,13.1715353 3.99981188,13.0431738 C3.88858249,12.9026304 3.77540779,12.7212258 3.65563298,12.5292404 C3.32590486,12.0004104 2.98506075,11.4538994 2.45420265,11.4463118 L2.44700504,11.4463118 C2.26831547,11.4463118 2.08758333,11.5371534 1.80273603,11.7704873 C1.63682985,11.9062276 1.4300446,12.0958462 1.1882023,12.3340529 C1.05971532,12.4606742 0.930839289,12.5914721 0.809119175,12.7173276 L0.809119175,0.873359566 C0.809119175,0.838832821 0.83711758,0.810682387 0.871646631,0.810682387 L11.2570541,0.810682387 C11.2914442,0.810682387 11.3194426,0.838832821 11.3194426,0.873359566 L11.3194426,7.98348822 C11.6156143,8.12138636 11.8879561,8.30202528 12.1285479,8.51739977 L12.1285479,0.873359566 C12.1284784,0.391795015 11.7375429,2.47305719e-17 11.2570541,2.47305719e-17 L0.871591051,0 C0.391005025,0 0,0.391795015 0,0.873359566 L0,13.6349315 C0,13.8814219 0.200157334,14.0818997 0.446098661,14.0818997 C0.570250398,14.0818997 0.689705629,14.0292047 0.774715179,13.9365533 C0.917625154,13.7799995 1.29121976,13.374728 1.67288735,12.9939592 C2.14228791,12.5256206 2.40195748,12.2788519 2.46916755,12.2805921 C2.52547005,12.2819843 2.55295434,12.3532654 2.62537503,12.4448726 C2.73660443,12.5853463 2.84973744,12.766751 2.96951225,12.9586668 C3.29785087,13.48513 3.63730548,14.0295527 4.16517616,14.0417345 C4.17087311,14.0418042 4.17629215,14.0422218 4.18201689,14.0418042 C4.71620979,14.0417345 5.0906103,13.4991217 5.45271375,12.9744683 C5.58439657,12.7837359 5.72040073,12.5865993 5.84670619,12.4432716 C5.9651193,12.3085755 6.02991164,12.2562285 6.05561737,12.2598483 C6.09789983,12.2658347 6.14005723,12.3117776 6.246076,12.4411833 C6.36029282,12.580404 6.47680231,12.7612518 6.60012035,12.9526803 C6.92825055,13.4619498 7.26763568,13.9885522 7.77883237,14.0191112 C7.79418634,14.0200161 7.8098182,14.0205034 7.82524164,14.0205034 L7.82545006,14.0205034 C7.99997114,14.0205034 8.16115303,13.9662073 8.31434529,13.8750873 C7.5213582,13.4290937 6.93055711,12.6650502 6.71462897,11.7551731 Z M11.5880745,14.0903226 C11.8861915,14.0901834 12.1285201,13.8476608 12.1285201,13.5496588 L12.1285201,13.4556152 C11.8807724,13.6773939 11.5996073,13.8623486 11.2932922,14.0017086 C11.3796496,14.0589979 11.4812915,14.0903226 11.5880745,14.0903226 Z M2.96756696,2.15282604 C2.96756696,1.92920968 2.78665418,1.74790251 2.56347285,1.74790251 C2.34029152,1.74790251 2.15933706,1.92919576 2.15933706,2.15282604 L2.15933706,9.48949468 L2.2252271,9.48949468 L2.96756696,9.48949468 L6.98139888,9.48949468 C7.13292375,9.19044853 7.32863469,8.91771509 7.55956943,8.67964762 L2.96756696,8.67964762 L2.96756696,2.15282604 Z M9.40315673,2.92554293 C9.25253503,2.92554293 9.12136633,3.00810083 9.0518219,3.13047586 L9.0509882,3.12998859 L7.4486874,5.99513756 L5.47420929,5.59171762 L5.47413982,5.591648 L5.47402866,5.59171762 L5.47375076,5.591648 L5.47368129,5.59199606 L3.36218468,7.11147909 C3.25630485,7.18450037 3.18687159,7.30666657 3.18687159,7.44519121 C3.18687159,7.66884934 3.36781215,7.85011474 3.59100738,7.85011474 C3.68007426,7.85011474 3.7623604,7.82115683 3.82912582,7.77222074 L3.82926477,7.77242957 L5.65870697,6.45593038 L7.86449499,6.90651831 L7.86525921,6.90700559 L7.86539816,6.90672714 L7.86546764,6.90672714 L7.86553711,6.90651831 L9.74177764,3.55147939 C9.78311524,3.48792512 9.80729252,3.41198021 9.80729252,3.33043862 C9.80729252,3.10683618 9.62637975,2.92554293 9.40315673,2.92554293 Z M9.92866526,7.90921395 C8.23236485,7.90921395 6.85733052,9.28694242 6.85733052,10.9865353 C6.85733052,12.6860726 8.23237875,14.0638567 9.92866526,14.0638567 C11.6248962,14.0638567 13,12.6860586 13,10.9865353 C13,9.2869285 11.6248962,7.90921395 9.92866526,7.90921395 Z M9.92866526,13.5537658 C8.51359945,13.5537658 7.36656801,12.4043594 7.36656801,10.9865353 C7.36656801,9.5687809 8.51359945,8.41944405 9.92866526,8.41944405 C11.3437311,8.41944405 12.4909015,9.5687809 12.4909015,10.9865353 C12.4909015,12.4043594 11.3437311,13.5537658 9.92866526,13.5537658 Z" id="Shape"></path>
            </g>
        </g>
    </g>
</svg>