<?xml version="1.0" encoding="UTF-8"?>
<svg width="13px" height="13px" viewBox="0 0 13 13" version="1.1" xmlns="http://www.w3.org/2000/svg" xmlns:xlink="http://www.w3.org/1999/xlink">
    <!-- Generator: Sketch 49.3 (51167) - http://www.bohemiancoding.com/sketch -->
    <title>检验记录</title>
    <desc>Created with Sketch.</desc>
    <defs></defs>
    <g id="设置管理" stroke="none" stroke-width="1" fill="none" fill-rule="evenodd">
        <g id="图标" transform="translate(-459.000000, -232.000000)" fill="#2ACDC8" fill-rule="nonzero">
            <g id="检验记录" transform="translate(459.000000, 232.000000)">
                <path d="M5.77826491,5.77777517 L7.22246607,5.77777517 L7.22246607,1.44444379 L5.77826491,1.44444379 L5.77826491,5.77777517 Z M5.41721462,7.22221896 L2.16776201,11.5555503 L10.832969,11.5555503 L7.58351636,7.22221896 L5.41721462,7.22221896 Z M4.33406375,1.44444379 L2.88986259,1.44444379 C2.49105745,1.44444379 2.16776201,1.12109404 2.16776201,0.722221896 C2.16776201,0.323349757 2.49105745,0 2.88986259,0 L10.1108684,0 C10.5096735,0 10.832969,0.323349757 10.832969,0.722221896 C10.832969,1.12109404 10.5096735,1.44444379 10.1108684,1.44444379 L8.66666724,1.44444379 L8.66666724,6.26166384 L12.8548506,11.8444391 C13.0195452,12.0631534 13.0462667,12.3562614 12.9238378,12.6011604 C12.8014089,12.8460593 12.550929,13.0005434 12.2771701,12.9999941 L0.723560848,12.9999941 C0.449553561,13.001097 0.19862689,12.8466867 0.0760861137,12.601564 C-0.0464546626,12.3564413 -0.0194061266,12.06302 0.145880383,11.8444391 L4.33406375,6.26166384 L4.33406375,1.44444379 Z" id="Shape"></path>
            </g>
        </g>
    </g>
</svg>