<?xml version="1.0" encoding="UTF-8"?>
<svg width="14px" height="14px" viewBox="0 0 14 14" version="1.1" xmlns="http://www.w3.org/2000/svg" xmlns:xlink="http://www.w3.org/1999/xlink">
    <!-- Generator: Sketch 49.3 (51167) - http://www.bohemiancoding.com/sketch -->
    <title>会员</title>
    <desc>Created with Sketch.</desc>
    <defs></defs>
    <g id="设置管理" stroke="none" stroke-width="1" fill="none" fill-rule="evenodd">
        <g id="图标" transform="translate(-306.000000, -126.000000)" fill="#2ACDC8" fill-rule="nonzero">
            <g id="会员" transform="translate(306.000000, 126.000000)">
                <path d="M9.22415082,8.38011548 C9.46115638,8.29432204 9.63637709,8.09344116 9.68732003,7.84911751 L10.1265594,5.74457439 C10.1483444,5.63992682 10.0975471,5.53364151 10.0019283,5.48380344 C9.90630942,5.43396538 9.78887407,5.45256515 9.71380073,5.52943798 L8.86836205,6.3957462 L7.71742361,4.52458767 C7.58519883,4.30966232 7.34911341,4.17847304 7.09460726,4.17849757 C6.84010111,4.1785221 6.60404158,4.30975689 6.47185921,4.52470772 L5.30525101,6.42203799 L4.43406046,5.52943798 C4.35897562,5.45252434 4.2414922,5.43391942 4.14585162,5.48379664 C4.05021104,5.53367385 3.99944041,5.64002438 4.02130175,5.74469444 L4.46054116,7.84923757 C4.5190008,8.12896351 4.73914557,8.34814094 5.02173752,8.40796796 C5.11993576,8.4545136 5.22744013,8.47871728 5.33634761,8.4787997 L8.85390699,8.47964008 C8.9840928,8.4798508 9.11193704,8.44543246 9.22402935,8.37999542 L9.22415082,8.38011548 Z M13.6730289,7.15172499 C13.6295849,7.22223232 13.5801285,7.28894444 13.5251986,7.35113435 L8.09009687,13.5066529 C7.56072593,14.1060815 6.63997518,14.1679092 6.03334863,13.6447147 C5.98367929,13.6018692 5.93700823,13.5557427 5.8936569,13.5066529 L0.458190718,7.35113435 C0.381744914,7.26464266 0.31601015,7.1694479 0.262379345,7.06756727 C0.0911529786,6.82586777 -0.000471408378,6.53785145 1.82394667e-06,6.24279766 C-6.67326102e-06,6.05672053 0.036458585,5.87240388 0.107382254,5.70003443 L2.08371664,0.8978824 C2.30715524,0.354923834 2.84116342,-0.000108421842 3.43423205,2.4837263e-08 L10.5655559,2.4837263e-08 C11.158536,-1.07327821e-05 11.6924231,0.355004884 11.9158284,0.8978824 L13.8921628,5.70003443 C14.0997568,6.20426039 13.9973567,6.75698809 13.6731504,7.15172499 L13.6730289,7.15172499 Z M6.99880074,3.3616265 C7.40132047,3.3616265 7.72762718,3.03912699 7.72762718,2.64130369 C7.72762718,2.34996032 7.55005432,2.08730448 7.27771054,1.9758122 C7.00536676,1.86431991 6.69188552,1.92594768 6.48344261,2.13195855 C6.27499971,2.33796943 6.21264441,2.64779311 6.3254529,2.9169593 C6.43826138,3.18612548 6.70401795,3.3616265 6.99880074,3.3616265 Z" id="Shape"></path>
            </g>
        </g>
    </g>
</svg>