<?xml version="1.0" encoding="UTF-8"?>
<svg width="13px" height="13px" viewBox="0 0 13 13" version="1.1" xmlns="http://www.w3.org/2000/svg" xmlns:xlink="http://www.w3.org/1999/xlink">
    <!-- Generator: Sketch 49.3 (51167) - http://www.bohemiancoding.com/sketch -->
    <title>患者2</title>
    <desc>Created with Sketch.</desc>
    <defs></defs>
    <g id="设置管理" stroke="none" stroke-width="1" fill="none" fill-rule="evenodd">
        <g id="图标" transform="translate(-248.000000, -348.000000)" fill="#2ACDC8" fill-rule="nonzero">
            <g id="患者2" transform="translate(248.000000, 348.000000)">
                <path d="M5.27365284,3.46604529 C5.27365284,4.15156803 5.83134208,4.70929265 6.51685405,4.70929265 C7.20236603,4.70929265 7.76005526,4.15156803 7.76005526,3.46604529 C7.76005526,2.78052254 7.20235135,2.22279793 6.51685405,2.22279793 C5.83135675,2.22279793 5.27365284,2.78052254 5.27365284,3.46604529 Z M6.51683938,5.5904673 C5.77467219,5.5904673 5.07693701,5.87949154 4.55214624,6.40430178 C4.02735547,6.92911203 3.73834197,7.62687311 3.73834197,8.36906785 C3.73834197,9.11126259 4.02735547,9.80902367 4.55214624,10.3338339 C5.07693701,10.8586442 5.77467219,11.1476684 6.51683938,11.1476684 C7.25900657,11.1476684 7.95674175,10.8586442 8.48153252,10.3338339 C9.00632328,9.80902367 9.29533679,9.11126259 9.29533679,8.36906785 C9.29533679,7.62687311 9.00632328,6.92911203 8.48153252,6.40430178 C7.95675642,5.87949154 7.25900657,5.5904673 6.51683938,5.5904673 Z M8.68633357,7.62963187 C8.68633357,7.75119344 8.58778489,7.84974578 8.46622783,7.84974578 L7.92905245,7.84974578 L7.92905245,8.38695577 C7.92905245,8.50851735 7.83050377,8.60706968 7.70894671,8.60706968 C7.58738965,8.60706968 7.48884098,8.50851735 7.48884098,8.38695577 L7.48884098,7.84974578 L6.95166559,7.84974578 C6.83010853,7.84974578 6.73155986,7.75119344 6.73155986,7.62963187 C6.73155986,7.5080703 6.83010853,7.40951797 6.95166559,7.40951797 L7.48884098,7.40951797 L7.48884098,6.87232264 C7.48884098,6.75076107 7.58738965,6.65220874 7.70894671,6.65220874 C7.83050377,6.65220874 7.92905245,6.75076107 7.92905245,6.87232264 L7.92905245,7.40951797 L8.46622783,7.40951797 C8.58778489,7.40951797 8.68633357,7.5080703 8.68633357,7.62963187 Z" id="Shape"></path>
                <path d="M12.9860081,6.07226045 C12.9791581,5.96669938 12.9697396,5.8613207 12.957761,5.75621803 C12.9302239,5.51436112 12.889087,5.27424712 12.8345458,5.03701677 C12.7579931,4.70418742 12.6551321,4.37796264 12.5269327,4.06141838 C12.4257127,3.81154389 12.3089854,3.56823532 12.1774324,3.33291356 C11.9869456,2.99224196 11.7662237,2.66938191 11.5179309,2.36823036 C11.4504611,2.28639879 11.3810192,2.20621333 11.3096665,2.12774451 C11.2383427,2.04931787 11.1651145,1.97264449 11.0900475,1.89779292 C10.9649185,1.77298957 10.8347838,1.65330778 10.6999638,1.53904206 C9.56714613,0.578988663 8.10114932,0 6.49993815,0 C5.51065658,0 4.57300526,0.221043625 3.73363304,0.61637869 C3.6469301,0.657212271 3.56114661,0.699970362 3.47634629,0.744621207 C3.41836029,0.775194584 3.36084344,0.806649614 3.30381575,0.838975349 C3.29568443,0.843575846 3.28756775,0.848205645 3.27945108,0.852835445 C2.97483817,1.02690317 2.68479892,1.22531736 2.41216866,1.44613839 C2.27456458,1.55757847 2.14153159,1.67454752 2.0133969,1.7967578 C1.60135099,2.18989901 1.24248824,2.63523991 0.945937432,3.12145186 C0.903448318,3.19115711 0.862276495,3.26165686 0.822443892,3.33291356 C0.790764148,3.38967234 0.759934933,3.44690169 0.729966585,3.50458243 C0.629901677,3.69691233 0.539571447,3.89415252 0.45931809,4.09555582 C0.446693571,4.12715349 0.43431795,4.15885004 0.422192378,4.19064253 C0.40942938,4.22431743 0.39695114,4.25809956 0.384758994,4.29198532 C0.360904019,4.35794156 0.338123535,4.42428149 0.316426586,4.4909788 C0.275199121,4.61798652 0.237918761,4.74624179 0.204639219,4.87555983 C0.192875644,4.92139526 0.181618084,4.96735907 0.170868593,5.01344288 C0.144804695,5.12480318 0.121682213,5.2368315 0.101525264,5.34941102 C0.0967585637,5.37611582 0.0921580509,5.40285001 0.0877239926,5.42961204 C0.0794212464,5.47987192 0.0717045128,5.53022685 0.0645753637,5.58066658 C0.0602401267,5.61113576 0.0561230815,5.64163559 0.0522245446,5.67216373 C0.03839744,5.7811182 0.0273031263,5.8904021 0.0189520533,5.99991251 C-1.61006228e-05,6.24989957 -0.00475114593,6.50076314 0.00476985538,6.75128795 C0.00656402856,6.79751588 0.0088448321,6.84372365 0.0116118868,6.88990356 C0.0154211549,6.95435447 0.0200655317,7.01858561 0.0257354807,7.08250908 C0.0402436279,7.24587011 0.060916315,7.4086249 0.0877093415,7.57042548 C0.118580922,7.7567217 0.157589979,7.94157772 0.204624568,8.12446304 C0.23788723,8.25378571 0.275167742,8.38204151 0.316411935,8.50904408 C0.369850187,8.67367988 0.429904701,8.83609408 0.496429152,8.99589094 C0.573241071,9.18047304 0.658597435,9.36138213 0.752221501,9.53803168 C0.751459647,9.5365812 0.750653841,9.53514538 0.749877336,9.5336949 C0.75063919,9.53514538 0.751444996,9.5365812 0.752221501,9.53803168 C0.75818447,9.54928385 0.764337903,9.56043346 0.770359477,9.57165633 C0.782578636,9.59451549 0.794939461,9.61729865 0.807441236,9.64000448 C0.814796054,9.65330783 0.822326684,9.66650861 0.829784059,9.67975336 C0.841219276,9.70019318 0.852769355,9.72056853 0.864433747,9.74087843 C0.872521116,9.75491434 0.880754995,9.7688477 0.888944922,9.78281035 C0.896915082,9.79640672 0.904753384,9.81010566 0.912826102,9.82364342 C0.904768035,9.81012031 0.896944384,9.79642138 0.888974224,9.78283965 C0.90028298,9.80218429 0.911691402,9.8214705 0.923199032,9.8406975 C0.919770691,9.83499815 0.916239792,9.82935742 0.912840753,9.82364342 C0.916254443,9.82935742 0.919785342,9.83499815 0.923213683,9.8406975 C0.931799187,9.85498248 0.940487248,9.86919421 0.94917531,9.88342058 C0.960597376,9.90216153 0.97211813,9.92084215 0.983737092,9.93946167 C1.01319623,9.98655515 1.04323804,10.0332816 1.07385558,10.0796303 C1.08588559,10.0978148 1.09800703,10.1159387 1.11021944,10.1340012 C1.11961075,10.1479052 1.12901671,10.16178 1.13851058,10.1756107 C1.15097861,10.1937637 1.1635785,10.2117994 1.17622234,10.2298204 C1.1857162,10.2433435 1.19518077,10.2568667 1.20476254,10.2703165 C1.21785596,10.2886227 1.23104695,10.3068589 1.24433498,10.3250243 C1.25372629,10.3379175 1.26307365,10.3508399 1.27256752,10.3636597 C1.28661785,10.3826331 1.30087331,10.40146 1.31512876,10.4202722 C1.32408054,10.4320811 1.33292976,10.4439633 1.3419548,10.4557136 C1.34374222,10.4580432 1.3454857,10.4604167 1.34727312,10.4627462 C1.3454857,10.4604167 1.34374222,10.4580432 1.3419548,10.4557136 C1.35828585,10.4768994 1.37474905,10.497983 1.39134342,10.5189631 C1.37660449,10.5002535 1.36180695,10.4816024 1.34727312,10.4627316 C1.3618509,10.481661 1.37670704,10.5003853 1.39148993,10.5191536 C1.39862499,10.5282081 1.40562818,10.5373505 1.41280718,10.546361 C1.43672357,10.576403 1.46090359,10.6062341 1.48534444,10.6358509 C1.48858232,10.6397628 1.49189345,10.6436161 1.49514598,10.6475133 C1.51635689,10.6731246 1.53776758,10.6985697 1.5593761,10.7238464 C1.56803486,10.7339704 1.57686943,10.7439479 1.58558679,10.754028 C1.6019813,10.7729428 1.61836115,10.7918576 1.63497542,10.8105965 C1.64515788,10.8220685 1.65547221,10.8334086 1.66572793,10.8448072 C1.68109263,10.8619543 1.69654969,10.8790184 1.71209844,10.8959988 C1.72304276,10.9079102 1.73411894,10.9197192 1.74515117,10.9315574 C1.76028537,10.94783 1.7755031,10.9640248 1.79080378,10.980141 C1.80221694,10.9921404 1.81373265,11.0040372 1.8252337,11.015934 C1.85204863,11.0437522 1.87913973,11.0713028 1.90650297,11.0985818 C1.93374464,11.1257822 1.96121631,11.1527513 1.98891502,11.1794861 C2.00458476,11.1945823 2.02032993,11.2096 2.03614995,11.2245387 C2.048281,11.235996 2.0603974,11.2474533 2.07261636,11.2588227 C2.0887325,11.2738256 2.10498049,11.2886966 2.12125778,11.3035383 C2.13335954,11.3145707 2.14543199,11.3256324 2.15762164,11.3365916 C2.17450345,11.3517129 2.1914647,11.3667453 2.20850467,11.3816882 C2.22029875,11.3920613 2.23204888,11.4025076 2.24391622,11.4127928 C2.2621036,11.4285033 2.2803786,11.444112 2.29874037,11.4596182 C2.30967004,11.4688925 2.32052646,11.4782547 2.33152938,11.4874557 C2.35321617,11.5055473 2.37502227,11.5234955 2.39694623,11.541299 C2.40478454,11.547687 2.41252028,11.5541775 2.42038788,11.5605362 C2.4502799,11.584668 2.48038406,11.6085358 2.51069684,11.6321369 C2.51702608,11.6370597 2.52345789,11.6418653 2.52980178,11.6467588 C2.55381741,11.6653589 2.5779629,11.6837906 2.60223648,11.7020527 C2.6132394,11.710316 2.62437419,11.7184035 2.63543572,11.7265936 C2.65520445,11.7412945 2.67505692,11.7558826 2.69499216,11.7703569 C2.70760669,11.77947 2.72032379,11.7884366 2.73301158,11.7974764 C2.75166234,11.8107651 2.77031311,11.8240391 2.78909573,11.8371227 C2.80248677,11.8464556 2.81598037,11.8556419 2.82944467,11.8648722 C2.84774381,11.8774137 2.86607224,11.8899259 2.88450324,11.9022915 C2.89838348,11.9115794 2.91230208,11.9208098 2.92625868,11.9299824 C2.94451386,11.9420258 2.962813,11.9539959 2.98118539,11.9658634 C3.02789495,11.9959625 3.07497226,12.025487 3.12240668,12.0544303 C3.14111605,12.065829 3.15989867,12.0770958 3.17872525,12.0883187 C3.19309791,12.096875 3.20747057,12.105446 3.22191648,12.1138998 C3.24113864,12.1251519 3.26046335,12.1362283 3.27980271,12.14729 C3.29402886,12.1554214 3.30822571,12.1635822 3.32251046,12.1715964 C3.34258238,12.1828633 3.3627715,12.193925 3.38297527,12.2049867 C3.39668863,12.2124881 3.41034339,12.2200775 3.42411536,12.227491 C3.44588679,12.239212 3.46780474,12.250684 3.48973733,12.2621559 C3.50208815,12.2686318 3.51438036,12.2752102 3.52678979,12.2815981 C3.55389419,12.2955608 3.58115976,12.3092451 3.60848394,12.3228414 C3.6158241,12.3264896 3.62309101,12.3302696 3.63046048,12.3339031 C3.66527641,12.3510545 3.70024493,12.3678944 3.73536186,12.3844207 C3.74448946,12.3887135 3.75371961,12.3928452 3.7628765,12.397094 C3.78888208,12.4091813 3.81491696,12.4212393 3.841113,12.4329896 C3.85431358,12.4389088 3.86761672,12.4446374 3.88086125,12.4504833 C3.90317477,12.4603289 3.92550294,12.4701599 3.94794832,12.4797565 C3.96259935,12.4860126 3.97733829,12.4920928 3.99203327,12.4982464 C4.01326262,12.5071397 4.03450661,12.5160184 4.05586782,12.5246773 C4.0712514,12.5309333 4.08672289,12.5370283 4.10216507,12.5431672 C4.12301349,12.5514451 4.14387656,12.5596791 4.16482753,12.567752 C4.1806653,12.5738469 4.19656167,12.5798393 4.21245804,12.585817 C4.23320389,12.5936115 4.25397906,12.6013473 4.27481282,12.6089367 C4.32787377,12.6282374 4.38117348,12.6468753 4.43469952,12.6648459 C4.45587026,12.6719371 4.47711426,12.6788818 4.49838755,12.6857533 C4.51454764,12.6909838 4.53069308,12.6962143 4.54691177,12.7013129 C4.56863925,12.708155 4.59043998,12.7147921 4.61227002,12.7213998 C4.62813708,12.7262054 4.64397485,12.7310696 4.65990052,12.735758 C4.68259497,12.742439 4.70539197,12.7489002 4.72818898,12.7553321 C4.74335279,12.7596249 4.75847266,12.7640057 4.77368043,12.7681813 C4.79855788,12.7750234 4.82356719,12.7815725 4.84856185,12.7881216 C4.86177708,12.7915793 4.8749337,12.7951836 4.88817823,12.798568 C4.92143607,12.8070511 4.95482577,12.8152118 4.98828873,12.8231821 C4.99335798,12.8243982 4.99839794,12.8257021 5.00348185,12.8269035 C5.04208731,12.836002 5.08083929,12.8447341 5.11970848,12.8531293 C5.1313707,12.8556493 5.14310617,12.8579642 5.15479769,12.860411 C5.18201931,12.8661396 5.20924093,12.871839 5.2365944,12.8772306 C5.25159706,12.8801902 5.26667297,12.8829153 5.28170492,12.8857723 C5.30589378,12.8903582 5.33009728,12.894944 5.35437404,12.8992661 C5.37063668,12.9021671 5.38697258,12.9048629 5.40327918,12.907632 C5.42644246,12.9115732 5.44962039,12.9154851 5.47287158,12.9191772 C5.48986677,12.921873 5.50690592,12.9244077 5.52393042,12.9269717 C5.54666882,12.9304001 5.56940722,12.9337699 5.59221887,12.9369492 C5.60958035,12.9393813 5.62698577,12.9416815 5.6443912,12.9439671 C5.68461008,12.9492628 5.72487777,12.9541809 5.76518895,12.958721 C5.78789804,12.9612703 5.81066575,12.9637024 5.8334481,12.9660173 C5.85108794,12.9678194 5.86874243,12.9695776 5.88642623,12.9712331 C5.909443,12.9733869 5.93251837,12.9753648 5.95560839,12.9772841 C5.97308707,12.9787346 5.9905511,12.9801997 6.00807374,12.9815037 C6.03170585,12.9832765 6.05538192,12.9848149 6.07908728,12.9863239 C6.09615573,12.9874081 6.11319488,12.9885656 6.13029264,12.9895326 C6.15508218,12.9909244 6.17994498,12.9920379 6.20480778,12.9931514 C6.22086531,12.9938693 6.23689354,12.9947045 6.25299502,12.9953052 C6.28058291,12.9963308 6.30824406,12.997034 6.3359052,12.9977226 C6.34935485,12.9980596 6.36276054,12.9985578 6.37623949,12.9988068 C6.66689233,13.0043472 6.95759242,12.9905887 7.24642282,12.9576221 C7.20940396,12.9618188 7.17235017,12.9657016 7.13526545,12.9692699 C7.58666479,12.9255771 8.03221671,12.8345266 8.46456814,12.6976208 C8.45935237,12.6992764 8.45416591,12.7010199 8.44895014,12.7026608 C8.45419521,12.7010199 8.45939633,12.6992617 8.4646414,12.6976061 C8.49412918,12.6883307 8.52354922,12.6788413 8.55289921,12.6691387 C8.58873843,12.6572494 8.62446888,12.6450346 8.66008615,12.6324959 C8.95864034,12.5273411 9.2490594,12.4003777 9.52899484,12.2526326 C9.73716611,12.1427845 9.93921365,12.0217037 10.1342436,11.8899259 C10.2206283,11.831567 10.3055995,11.7711424 10.3890836,11.7087044 C10.4265675,11.6806086 10.4637443,11.6521053 10.5006073,11.6231996 C10.5115955,11.614614 10.5224812,11.6059111 10.5334109,11.5972669 C10.5469778,11.5865275 10.5606618,11.57592 10.5741261,11.5650634 C10.5606618,11.5759053 10.5469924,11.5864982 10.5334256,11.5972376 C10.5605378,11.5757497 10.5874818,11.5540505 10.6142553,11.532142 C10.6008643,11.5431012 10.5875904,11.5542068 10.5741115,11.5650634 C10.5876051,11.5542068 10.6008789,11.5430865 10.61427,11.5321127 C10.6250385,11.5232926 10.6358363,11.5145165 10.6465462,11.5056379 C10.6826091,11.4758076 10.7183499,11.4455901 10.7537624,11.4149905 C10.9109775,11.2787953 11.0616097,11.1351817 11.205146,10.9846389 C11.316103,10.8682025 11.422737,10.7477218 11.5248315,10.6234413 C11.8146746,10.2707053 12.0666127,9.88846075 12.276488,9.48301618 C12.3717928,9.29879315 12.4582014,9.11010222 12.5354157,8.91759459 C12.7225,8.45103533 12.8544285,7.96421342 12.9285175,7.46703151 C12.9474553,7.34015512 12.9626307,7.21274557 12.9740236,7.08497049 C12.9913694,6.89045473 13.0000368,6.69526247 12.9999999,6.49997481 C12.9998889,6.35729078 12.9952226,6.21464667 12.9860081,6.07226045 Z M6.4999235,11.5747625 C4.72502435,11.5747625 3.28619056,10.1359058 3.28619056,8.3609784 C3.28619056,6.58605099 4.725039,5.14719427 6.4999235,5.14719427 C8.27480799,5.14719427 9.71365643,6.58605099 9.71365643,8.3609784 C9.71365643,10.1359058 8.27482264,11.5747625 6.4999235,11.5747625 Z M8.18073372,3.46563936 C8.18073372,4.39394347 7.42821282,5.14647636 6.4999235,5.14647636 C5.57164883,5.14647636 4.81911327,4.39394347 4.81911327,3.46563936 C4.81911327,2.53733526 5.57163418,1.78480237 6.4999235,1.78480237 C7.42821282,1.78480237 8.18073372,2.53734991 8.18073372,3.46563936 Z M0.829857314,9.67994382 C0.862978603,9.71334926 0.896099892,9.74675469 0.929857314,9.77994382 C0.896142301,9.74675469 0.863021012,9.71334926 0.829857314,9.67994382 Z M1.27253821,10.363733 C1.30553821,10.3972478 1.33905546,10.4305033 1.37253821,10.463733 C1.33896254,10.430537 1.30562871,10.3972031 1.27253821,10.363733 Z M1.58579191,10.7543796 C1.61898594,10.7878172 1.65217997,10.8212809 1.68579191,10.8543796 C1.65215012,10.8212548 1.61898594,10.7878172 1.58579191,10.7543796 Z M2.24388691,11.4128954 C2.27700537,11.4465117 2.31044614,11.4796878 2.34388691,11.5128954 C2.31044614,11.4796878 2.27700537,11.4465117 2.24388691,11.4128954 Z M2.63580199,11.7269892 C2.66899403,11.7605835 2.70232791,11.7939174 2.73580199,11.8269892 C2.7022701,11.7940162 2.66903604,11.7605027 2.63580199,11.7269892 Z M2.7332167,11.7977401 C2.76644479,11.8312347 2.7996992,11.8647293 2.8332167,11.8977401 C2.7996992,11.8647293 2.7664711,11.8312347 2.7332167,11.7977401 Z M3.32249581,12.171699 C3.35568284,12.2054297 3.38908933,12.2385864 3.42249581,12.271699 C3.38908933,12.2385423 3.35570722,12.2054297 3.32249581,12.171699 Z M3.88115427,12.4507177 C3.9144216,12.4843032 3.94768893,12.5179391 3.98115427,12.5507177 C3.94768893,12.5179391 3.9144216,12.4843032 3.88115427,12.4507177 Z M4.77365112,12.7682545 C4.80687928,12.8025508 4.8402652,12.8353656 4.87365112,12.8682545 C4.84026386,12.8356869 4.8069299,12.8023529 4.77365112,12.7682545 Z M5.28189539,12.8858895 C5.31518819,12.9169895 5.348481,12.9481895 5.38189539,12.9775895 C5.34846074,12.9481895 5.31518819,12.9169895 5.28189539,12.8858895 Z M6.13023403,12.9896205 C6.16349499,12.9990205 6.19685464,13.0066205 6.23023403,13.0142205 C6.19687438,13.0066205 6.16349499,12.9991205 6.13023403,12.9896205 Z" id="Shape"></path>
            </g>
        </g>
    </g>
</svg>