<?xml version="1.0" encoding="UTF-8"?>
<svg width="13px" height="13px" viewBox="0 0 13 13" version="1.1" xmlns="http://www.w3.org/2000/svg" xmlns:xlink="http://www.w3.org/1999/xlink">
    <!-- Generator: Sketch 49.3 (51167) - http://www.bohemiancoding.com/sketch -->
    <title>就诊人管理</title>
    <desc>Created with Sketch.</desc>
    <defs></defs>
    <g id="设置管理" stroke="none" stroke-width="1" fill="none" fill-rule="evenodd">
        <g id="图标" transform="translate(-49.000000, -232.000000)" fill="#0BBFBE" fill-rule="nonzero">
            <g id="就诊人管理" transform="translate(49.000000, 232.000000)">
                <path d="M10.075,5.44871794 L8.12499999,5.44871794 C7.94559999,5.44871794 7.79999999,5.59230769 7.79999999,5.76923076 C7.79999999,5.94615383 7.94559999,6.08974358 8.12499999,6.08974358 L10.075,6.08974358 C10.2544,6.08974358 10.4,5.94615383 10.4,5.76923076 C10.4,5.59230769 10.2544,5.44871794 10.075,5.44871794 Z M4.54999999,2.56410256 L5.19999999,2.56410256 L8.12499999,2.56410256 L8.77499999,2.56410256 C8.95439999,2.56410256 9.09999999,2.42051282 9.09999999,2.24358975 L9.09999999,1.28205128 C9.09999999,1.1051282 8.95439999,0.961538465 8.77499999,0.961538465 L8.0353,0.961538465 C7.8338,0.40256411 7.2982,0 6.6625,0 C6.02679999,0 5.4912,0.402564097 5.2897,0.961538465 L4.54999999,0.961538465 C4.37059999,0.961538465 4.22499999,1.1051282 4.22499999,1.28205128 L4.22499999,2.24358975 C4.22499999,2.42051282 4.37059999,2.56410256 4.54999999,2.56410256 Z M5.03749999,1.6025641 L5.88249999,1.6025641 C5.87144999,1.54935897 5.84999999,1.49935897 5.84999999,1.4423077 C5.84999999,0.999999999 6.21399999,0.641025648 6.66249998,0.641025648 C7.11099999,0.641025648 7.47499998,1.00000001 7.47499998,1.4423077 C7.47499998,1.49935897 7.45354998,1.54935898 7.44249998,1.60256411 L8.28749998,1.60256411 C8.3772,1.6025641 8.45,1.67435897 8.45,1.76282051 C8.45,1.85128206 8.3772,1.92307692 8.28749999,1.92307692 L5.03749999,1.92307692 C4.9478,1.92307692 4.875,1.85128206 4.875,1.76282051 C4.875,1.67435897 4.9478,1.6025641 5.03749999,1.6025641 Z M10.075,7.69230769 L8.12499999,7.69230769 C7.94559999,7.69230769 7.79999999,7.83589744 7.79999999,8.01282051 C7.79999999,8.18974358 7.94559999,8.33333332 8.12499999,8.33333332 L10.075,8.33333332 C10.2544,8.33333332 10.4,8.18974358 10.4,8.01282051 C10.4,7.83589744 10.2544,7.69230769 10.075,7.69230769 Z M11.7,1.28205128 L9.74999998,1.28205128 L9.74999998,1.92307693 L11.375,1.92307693 C11.9132,1.92307692 12.35,2.35384615 12.35,2.88461538 L12.35,10.8974359 C12.35,11.4282051 11.9132,11.8589744 11.375,11.8589744 L1.62499999,11.8589744 C1.0868,11.8589744 0.649999992,11.4282051 0.649999992,10.8974359 L0.649999992,2.88461538 C0.649999992,2.35384615 1.08679999,1.92307692 1.62499999,1.92307692 L3.575,1.92307692 L3.575,1.28205127 L1.3,1.28205128 C0.581750002,1.28205128 0,1.85576923 0,2.56410256 L9.92261828e-17,11.2179487 C9.92261828e-17,11.926282 0.581750002,12.5 1.3,12.5 L11.7,12.5 C12.41825,12.5 13,11.926282 13,11.2179487 L13,2.56410256 C13,1.85576923 12.41825,1.28205128 11.7,1.28205128 Z M5.5913,7.31089744 C5.9449,7.01666667 6.175,6.58205128 6.175,6.08974359 C6.175,5.20448718 5.44764999,4.48717949 4.55,4.48717949 C3.65235,4.48717949 2.92500001,5.20448719 2.92500001,6.08974359 C2.92500001,6.58205128 3.15510001,7.01666667 3.5087,7.31089744 C2.77939999,7.68461539 2.27499999,8.42756411 2.27499999,9.2948718 C2.27499999,9.36794873 2.28734999,9.43782052 2.29709998,9.50833334 C2.28474999,9.54230769 2.27499999,9.5775641 2.27499999,9.61538462 C2.27499999,9.79230769 2.42059999,9.93589744 2.6,9.93589744 C2.77939999,9.93589744 2.92499999,9.79230769 2.92499999,9.61538462 L2.9575,9.61538462 C2.93669999,9.51153846 2.92499999,9.40448718 2.92499999,9.2948718 C2.92499999,8.40961539 3.65235,7.6923077 4.54999999,7.6923077 C5.44764999,7.6923077 6.17499998,8.4096154 6.17499998,9.2948718 C6.17499998,9.40448719 6.16329999,9.51153847 6.14249998,9.61538462 L6.17499998,9.61538462 C6.17499998,9.79230769 6.32059999,9.93589744 6.49999998,9.93589744 C6.67939997,9.93589744 6.82499998,9.79230769 6.82499998,9.61538462 C6.82499998,9.5775641 6.81524997,9.54230769 6.80289998,9.50833334 C6.81265,9.43782052 6.82499999,9.36794873 6.82499999,9.2948718 C6.82499999,8.42756411 6.3206,7.68461539 5.5913,7.31089744 Z M4.54999999,7.05128206 C4.01179999,7.05128206 3.57499999,6.62051283 3.57499999,6.08974359 C3.57499999,5.55897437 4.01179998,5.12820513 4.54999999,5.12820513 C5.08819998,5.12820513 5.52499999,5.55897435 5.52499999,6.08974359 C5.52499999,6.62051282 5.0882,7.05128206 4.54999999,7.05128206 Z" id="Shape"></path>
            </g>
        </g>
    </g>
</svg>