<?xml version="1.0" encoding="UTF-8"?>
<svg width="14px" height="14px" viewBox="0 0 14 14" version="1.1" xmlns="http://www.w3.org/2000/svg" xmlns:xlink="http://www.w3.org/1999/xlink">
    <!-- Generator: Sketch 49.3 (51167) - http://www.bohemiancoding.com/sketch -->
    <title>权限管理</title>
    <desc>Created with Sketch.</desc>
    <defs></defs>
    <g id="设置管理" stroke="none" stroke-width="1" fill="none" fill-rule="evenodd">
        <g id="图标" transform="translate(-181.000000, -126.000000)" fill="#2ACDC8" fill-rule="nonzero">
            <g id="权限管理" transform="translate(181.000000, 126.000000)">
                <path d="M12.234375,1.05 C12.6296875,1.05 12.95,1.371875 12.95,1.765625 L12.95,12.234375 C12.95,12.6296875 12.628125,12.95 12.234375,12.95 L1.765625,12.95 C1.3703125,12.95 1.05,12.628125 1.05,12.234375 L1.05,1.765625 C1.05,1.3703125 1.371875,1.05 1.765625,1.05 L12.234375,1.05 Z M12.234375,0 L1.765625,0 C0.790625,0 0,0.790625 0,1.765625 L0,12.234375 C0,13.209375 0.790625,14 1.765625,14 L12.234375,14 C13.209375,14 14,13.209375 14,12.234375 L14,1.765625 C14,0.790625 13.209375,2.22044605e-16 12.234375,0 Z" id="Shape"></path>
                <path d="M8.90322581,6.90322581 L8.20239508,6.90322581 L8.20239508,6.11355595 C8.20239508,5.47437329 7.67677204,4.9530981 7.03225806,4.9530981 C6.38774409,4.9530981 5.86212105,5.47437329 5.86212105,6.11355595 L5.86212105,6.90322581 L5.16129032,6.90322581 L5.16129032,6.11355595 C5.16129032,5.08962255 5.99978423,4.25806452 7.03225806,4.25806452 C8.0647319,4.25806452 8.90322581,5.09117397 8.90322581,6.11355595 L8.90322581,6.90322581 Z" id="Shape"></path>
                <path d="M8.75721917,10.9677419 L5.30885908,10.9677419 C4.72943436,10.9677419 4.25806452,10.4999714 4.25806452,9.92341709 L4.25806452,7.62341595 C4.25806452,7.04841566 4.72943436,6.58064516 5.30885908,6.58064516 L8.75565316,6.58064516 C9.33507788,6.58064516 9.80644772,7.04841566 9.80644772,7.62341595 L9.80644772,9.92497115 C9.80801373,10.4999714 9.33664389,10.9677419 8.75721917,10.9677419 Z M5.30885908,7.27530767 C5.11623951,7.27530767 4.95963823,7.43071315 4.95963823,7.62186189 L4.95963823,9.92341709 C4.95963823,10.1145658 5.11623951,10.2715254 5.30885908,10.2715254 L8.75565316,10.2715254 C8.94827273,10.2715254 9.10487401,10.1161199 9.10487401,9.92341709 L9.10487401,7.62341595 C9.10487401,7.43226721 8.94827273,7.27686172 8.75565316,7.27686172 L5.30885908,7.27686172 L5.30885908,7.27530767 Z" id="Shape"></path>
                <path d="M6.51612903,9.03225806 C6.51612903,9.31730826 6.74720787,9.5483871 7.03225806,9.5483871 C7.31730826,9.5483871 7.5483871,9.31730826 7.5483871,9.03225806 C7.5483871,8.74720787 7.31730826,8.51612903 7.03225806,8.51612903 C6.74720787,8.51612903 6.51612903,8.74720787 6.51612903,9.03225806 Z" id="Shape"></path>
                <path d="M2.89716795,5.5483871 C2.75698925,5.5483871 2.64516129,5.43669703 2.64516129,5.30018695 L2.64516129,3.28045822 C2.64516129,3.14239688 2.75856429,3.03225806 2.89716795,3.03225806 C3.03734666,3.03225806 3.14917462,3.14394813 3.14917462,3.28045822 L3.14917462,5.29863569 C3.15074966,5.43669703 3.03734666,5.5483871 2.89716795,5.5483871 Z M4.07057398,4.99614176 C3.93039527,4.99614176 3.81856732,4.88445169 3.81856732,4.74794161 L3.81856732,3.8342548 C3.81856732,3.69619347 3.93197032,3.58605465 4.07057398,3.58605465 C4.21075269,3.58605465 4.32258065,3.69774472 4.32258065,3.8342548 L4.32258065,4.74794161 C4.32258065,4.88445169 4.21075269,4.99614176 4.07057398,4.99614176 Z" id="Shape"></path>
                <path d="M11.1673482,5.5483871 C11.3075269,5.5483871 11.4193548,5.43669703 11.4193548,5.30018695 L11.4193548,3.28045822 C11.4193548,3.14239688 11.3059518,3.03225806 11.1673482,3.03225806 C11.0271695,3.03225806 10.9153415,3.14394813 10.9153415,3.28045822 L10.9153415,5.29863569 C10.9137665,5.43669703 11.0271695,5.5483871 11.1673482,5.5483871 Z M9.99394215,4.99614176 C10.1341209,4.99614176 10.2459488,4.88445169 10.2459488,4.74794161 L10.2459488,3.8342548 C10.2459488,3.69619347 10.1325458,3.58605465 9.99394215,3.58605465 C9.85376344,3.58605465 9.74193548,3.69774472 9.74193548,3.8342548 L9.74193548,4.74794161 C9.74193548,4.88445169 9.85376344,4.99614176 9.99394215,4.99614176 Z" id="Shape"></path>
            </g>
        </g>
    </g>
</svg>