<?xml version="1.0" encoding="UTF-8"?>
<svg width="14px" height="13px" viewBox="0 0 14 13" version="1.1" xmlns="http://www.w3.org/2000/svg" xmlns:xlink="http://www.w3.org/1999/xlink">
    <!-- Generator: Sketch 49.3 (51167) - http://www.bohemiancoding.com/sketch -->
    <title>药房管理</title>
    <desc>Created with Sketch.</desc>
    <defs></defs>
    <g id="设置管理" stroke="none" stroke-width="1" fill="none" fill-rule="evenodd">
        <g id="图标" transform="translate(-171.000000, -348.000000)" fill="#2ACDC8" fill-rule="nonzero">
            <g id="药房管理" transform="translate(171.600000, 348.000000)">
                <path d="M6.5,0 C2.87012987,0 0,2.87012987 0,6.5 C0,10.1298701 2.95454545,13 6.5,13 C10.1298701,13 13,10.0454545 13,6.5 C13,2.95454545 10.1298701,0 6.5,0 Z M6.5,12.4935065 C3.20779221,12.4935065 0.506493506,9.79220779 0.506493506,6.5 C0.506493506,3.20779221 3.20779221,0.506493506 6.5,0.506493506 C9.79220779,0.506493506 12.4935065,3.20779221 12.4935065,6.5 C12.4935065,9.79220779 9.79220779,12.4935065 6.5,12.4935065 Z" id="Shape"></path>
                <path d="M3.44590643,8.60918557 C3.53021442,8.77792041 3.69883041,8.86228783 3.86744639,8.86228783 L5.55360624,8.86228783 L5.55360624,8.18734845 L4.45760234,8.18734845 C4.79483431,7.76551134 5.21637427,7.17493938 5.38499025,6.92183711 C5.38499025,6.92183711 5.55360624,6.66873485 5.38499025,6.5 C5.30068226,6.33126515 5.04775828,6.24689773 5.04775828,6.24689773 L4.37329435,6.24689773 C4.62621832,5.99379546 4.96345029,5.57195835 5.21637427,5.23448866 L4.79483431,4.81265155 C4.28898635,5.31885608 3.61452242,6.16253031 3.53021442,6.24689773 C3.36159844,6.41563258 3.36159844,6.58436742 3.44590643,6.75310227 C3.61452242,7.00620454 3.86744639,7.00620454 4.03606238,7.00620454 L4.37329435,7.00620454 C4.03606238,7.42804165 3.61452242,8.01861361 3.53021442,8.10298103 C3.44590643,8.27171588 3.44590643,8.44045072 3.44590643,8.60918557 Z M8.58869396,3.46277279 L8.33576998,3.46277279 L8.33576998,3.04093567 L7.66130604,3.04093567 L7.66130604,3.46277279 L5.30068226,3.46277279 L5.30068226,3.04093567 L4.54191033,3.04093567 L4.54191033,3.46277279 L3.19298246,3.46277279 L3.19298246,4.13771217 L4.54191033,4.13771217 L4.54191033,4.47518186 L5.30068226,4.47518186 L5.30068226,4.13771217 L7.57699805,4.13771217 L7.57699805,4.47518186 L8.33576998,4.47518186 L8.33576998,4.13771217 L9.76900585,4.13771217 L9.76900585,3.46277279 L8.58869396,3.46277279 Z M3.44590643,9.28412495 L5.63791423,9.28412495 L5.63791423,9.95906433 L3.44590643,9.95906433 L3.44590643,9.28412495 Z M7.23976608,4.98138639 L6.64961014,4.55954928 L5.63791423,6.41563258 L6.22807018,6.75310227 L6.64961014,5.99379546 L8.75730994,5.99379546 L8.75730994,8.77792041 C8.75730994,9.03102268 8.58869396,9.19975752 8.33576998,9.19975752 L7.40838207,9.19975752 L7.40838207,9.95906433 L8.33576998,9.95906433 C9.01023392,9.95906433 9.51608187,9.45285979 9.51608187,8.77792041 L9.51608187,5.23448866 L7.0711501,5.23448866 L7.23976608,4.98138639 Z" id="Shape"></path>
                <path d="M6.24183723,7.24502924 C6.07395224,7.49590643 6.15789474,7.91403509 6.49366472,8.08128655 L7.33308967,8.58304094 C7.50097466,8.66666667 7.58491715,8.66666667 7.75280214,8.66666667 C7.92068713,8.66666667 8.00462963,8.4994152 8.08857212,8.41578947 C8.17251462,8.24853801 8.17251462,8.08128655 8.17251462,7.99766082 C8.17251462,7.83040936 8.00462963,7.74678363 7.92068713,7.66315789 L7.50097466,7.32865497 L7.08126218,7.07777778 C6.91337719,6.99415205 6.7454922,6.99415205 6.66154971,6.99415205 C6.49366472,7.07777778 6.32577973,7.16140351 6.24183723,7.24502924 Z M6.57760721,7.4122807 C6.57760721,7.49590643 6.49366472,7.49590643 6.40972222,7.4122807 C6.32577973,7.4122807 6.32577973,7.32865497 6.40972222,7.24502924 C6.49366472,7.16140351 6.7454922,7.07777778 6.99731969,7.24502924 C7.08126218,7.24502924 7.08126218,7.32865497 6.99731969,7.4122807 C6.99731969,7.49590643 6.91337719,7.49590643 6.8294347,7.4122807 C6.7454922,7.32865497 6.66154971,7.32865497 6.57760721,7.4122807 Z M7.33308967,8.4994152 L6.91337719,8.24853801 L7.41703216,7.49590643 L7.83674464,7.74678363 C8.08857212,7.91403509 8.08857212,8.16491228 8.00462963,8.41578947 C7.92068713,8.4994152 7.83674464,8.58304094 7.75280214,8.58304094 C7.58491715,8.58304094 7.50097466,8.58304094 7.33308967,8.4994152 Z" id="Shape"></path>
            </g>
        </g>
    </g>
</svg>