<?xml version="1.0" encoding="UTF-8"?>
<svg width="14px" height="13px" viewBox="0 0 14 13" version="1.1" xmlns="http://www.w3.org/2000/svg" xmlns:xlink="http://www.w3.org/1999/xlink">
    <!-- Generator: Sketch 49.3 (51167) - http://www.bohemiancoding.com/sketch -->
    <title>排班on</title>
    <desc>Created with Sketch.</desc>
    <defs></defs>
    <g id="设置管理" stroke="none" stroke-width="1" fill="none" fill-rule="evenodd">
        <g id="图标" transform="translate(-133.000000, -348.000000)" fill="#2ACDC8" fill-rule="nonzero">
            <g id="排班on" transform="translate(133.400000, 348.000000)">
                <path d="M9.05357143,0.930327869 L9.05357143,0.232581967 C9.05357143,0.104124039 9.15749888,0 9.28571429,0 L9.51785714,0 C9.64607254,0 9.75,0.104124039 9.75,0.232581967 L9.75,0.930327869 L12.7678571,0.930327869 C12.8960725,0.930327869 13,1.03445191 13,1.16290984 L13,11.8616803 C13,11.9901383 12.8960725,12.0942623 12.7678571,12.0942623 L0.232142857,12.0942623 C0.103927455,12.0942623 0,11.9901383 0,11.8616803 L0,1.16290984 C0,1.03445191 0.103927455,0.930327869 0.232142857,0.930327869 L3.25,0.930327869 L3.25,0.232581967 C3.25,0.104124039 3.35392746,0 3.48214286,0 L3.71428571,0 C3.84250112,0 3.94642857,0.104124039 3.94642857,0.232581967 L3.94642857,0.930327869 L9.05357143,0.930327869 Z M0.696428571,4.41905738 L0.696428571,5.11680328 L12.3035714,5.11680328 L12.3035714,4.41905738 L0.696428571,4.41905738 Z M8.82142857,6.04713115 L8.82142857,6.97745902 L9.75,6.97745902 L9.75,6.04713115 L8.82142857,6.04713115 Z M10.6785714,6.04713115 L10.6785714,6.97745902 L11.6071429,6.97745902 L11.6071429,6.04713115 L10.6785714,6.04713115 Z M6.96428571,6.04713115 L6.96428571,6.97745902 L7.89285714,6.97745902 L7.89285714,6.04713115 L6.96428571,6.04713115 Z M5.10714286,6.04713115 L5.10714286,6.97745902 L6.03571429,6.97745902 L6.03571429,6.04713115 L5.10714286,6.04713115 Z M8.82142857,7.67520492 L8.82142857,8.60553279 L9.75,8.60553279 L9.75,7.67520492 L8.82142857,7.67520492 Z M10.6785714,7.67520492 L10.6785714,8.60553279 L11.6071429,8.60553279 L11.6071429,7.67520492 L10.6785714,7.67520492 Z M6.96428571,7.67520492 L6.96428571,8.60553279 L7.89285714,8.60553279 L7.89285714,7.67520492 L6.96428571,7.67520492 Z M5.10714286,7.67520492 L5.10714286,8.60553279 L6.03571429,8.60553279 L6.03571429,7.67520492 L5.10714286,7.67520492 Z M3.25,7.67520492 L3.25,8.60553279 L4.17857143,8.60553279 L4.17857143,7.67520492 L3.25,7.67520492 Z M1.39285714,7.67520492 L1.39285714,8.60553279 L2.32142857,8.60553279 L2.32142857,7.67520492 L1.39285714,7.67520492 Z M8.82142857,9.30327869 L8.82142857,10.2336066 L9.75,10.2336066 L9.75,9.30327869 L8.82142857,9.30327869 Z M6.96428571,9.30327869 L6.96428571,10.2336066 L7.89285714,10.2336066 L7.89285714,9.30327869 L6.96428571,9.30327869 Z M5.10714286,9.30327869 L5.10714286,10.2336066 L6.03571429,10.2336066 L6.03571429,9.30327869 L5.10714286,9.30327869 Z M3.25,9.30327869 L3.25,10.2336066 L4.17857143,10.2336066 L4.17857143,9.30327869 L3.25,9.30327869 Z M1.39285714,9.30327869 L1.39285714,10.2336066 L2.32142857,10.2336066 L2.32142857,9.30327869 L1.39285714,9.30327869 Z" id="Shape"></path>
            </g>
        </g>
    </g>
</svg>