<?xml version="1.0" encoding="UTF-8"?>
<svg width="22px" height="22px" viewBox="0 0 22 22" version="1.1" xmlns="http://www.w3.org/2000/svg" xmlns:xlink="http://www.w3.org/1999/xlink">
    <!-- Generator: Sketch 46.2 (44496) - http://www.bohemiancoding.com/sketch -->
    <title>Icon/Success</title>
    <desc>Created with Sketch.</desc>
    <defs></defs>
    <g id="Symbols" stroke="none" stroke-width="1" fill="none" fill-rule="evenodd">
        <g id="_Resources/Modal/Icon/Success" fill="#52C41A">
            <g id="Icon/Success">
                <path d="M11,22 C4.92473118,22 0,17.0752688 0,11 C0,4.92473118 4.92473118,0 11,0 C17.0752688,0 22,4.92473118 22,11 C22,17.0752688 17.0752688,22 11,22 L11,22 Z M17.6494624,13.916129 L8.71612903,5.22150538 C8.44731183,4.95268817 8.01075269,4.95268817 7.74193548,5.22150538 L4.32903226,8.48387097 C4.06021505,8.75268817 4.06021505,9.18924731 4.32903226,9.45806452 L4.32903226,9.45806452 C4.59784946,9.72688172 5.0344086,9.72688172 5.30322581,9.45806452 L8.23010753,6.68172043 L16.6752688,14.8903226 C16.944086,15.1591398 17.3806452,15.1591398 17.6494624,14.8903226 L17.6494624,14.8903226 C17.9182796,14.6215054 17.9182796,14.1849462 17.6494624,13.916129 L17.6494624,13.916129 Z" id="Shape" transform="translate(11.000000, 11.000000) scale(1, -1) translate(-11.000000, -11.000000) "></path>
            </g>
        </g>
    </g>
</svg>