<?xml version="1.0" encoding="UTF-8"?>
<svg width="14px" height="14px" viewBox="0 0 14 14" version="1.1" xmlns="http://www.w3.org/2000/svg" xmlns:xlink="http://www.w3.org/1999/xlink">
    <!-- Generator: Sketch 49.3 (51167) - http://www.bohemiancoding.com/sketch -->
    <title>供应商管理</title>
    <desc>Created with Sketch.</desc>
    <defs></defs>
    <g id="设置管理" stroke="none" stroke-width="1" fill="none" fill-rule="evenodd">
        <g id="图标" transform="translate(-368.000000, -126.000000)" fill-rule="nonzero">
            <g id="供应商管理" transform="translate(368.000000, 126.000000)">
                <path d="M13.999986,11.7849188 C13.999986,13.0082072 13.0081718,14 11.784903,14 L2.215083,14 C0.991814223,14 1.36727631e-08,13.0081933 0,11.7849188 L0,2.21509521 C0,0.991806737 0.99181421,0 2.215083,0 L11.784917,0 C13.0081858,0 14,0.991820737 14,2.21509521 L14,11.7849188 L13.999986,11.7849188 Z" id="Shape" fill="#2ACDC8"></path>
                <polygon id="Shape" fill="#FFFFFF" points="7.46666667 5.95897436 8.18461538 5.95897436 8.18461538 7.03589744 7.46666667 7.03589744"></polygon>
                <path d="M7.03605824,2.08205128 C4.30014043,2.08205128 2.08205128,4.30018384 2.08205128,7.03603027 C2.08205128,7.74467439 2.23116088,8.41854417 2.49916384,9.02782905 C2.50548394,9.03963024 2.51151041,9.05143141 2.51798432,9.06296692 L2.51798432,9.0705454 C2.6437855,9.3493597 2.79520432,9.61589053 2.97029088,9.86670562 L2.97029088,11.3185025 L4.54463878,11.3185025 C4.84106918,11.4912249 5.15467128,11.6326267 5.48037701,11.7404227 C5.96962539,11.9020317 6.49247377,11.9897436 7.03590443,11.9897436 C9.08897188,11.9897436 10.8503919,10.7406781 11.6019104,8.96130058 C11.8514844,8.36907427 11.9897436,7.71870898 11.9897436,7.03601628 C11.9897576,4.30016985 9.7717663,2.08205127 7.03605824,2.08205128 Z M5.63737274,9.64343399 L4.72804749,9.64343399 L4.72804749,7.17172986 C4.60353315,7.35808784 4.47180382,7.54485131 4.33122357,7.73122327 C4.31595465,7.60711512 4.29988875,7.42798607 4.28463382,7.1950246 C4.23804407,6.82190316 4.20670923,6.54998662 4.1914543,6.37888348 C4.59550719,5.75714024 4.91442052,4.9795627 5.1473693,4.04693386 L6.1032843,4.28028682 C5.96351503,4.71567208 5.80847684,5.11208827 5.63737274,5.46954939 L5.63737274,9.64343399 Z M9.85787067,7.91758125 L8.66899289,7.91758125 C8.85535193,8.08908988 9.11963555,8.32967176 9.46184373,8.64054338 C9.61688192,8.81205201 9.74138228,8.92852574 9.83457579,8.99037009 L9.11160958,9.62015323 C8.61437717,9.13777298 8.21753926,8.74176228 7.92273179,8.43089066 L8.55170751,7.91759524 L6.94352192,7.91759524 L7.66567714,8.40759591 C7.5572287,8.53210955 7.40943346,8.69517279 7.22306047,8.89720507 C6.91218709,9.23900585 6.67119836,9.49524808 6.50009425,9.66675671 L5.77712804,9.03697357 C6.01007682,8.85061559 6.34425907,8.50881481 6.77963279,8.01117972 C6.82622254,7.96459023 6.85755738,7.93325557 6.8728123,7.91759524 L5.82371779,7.91759524 L5.82371779,7.05486462 L6.54668401,7.05486462 L6.54668401,5.95918652 L5.94019218,5.95918652 L5.94019218,5.09645591 L6.54668401,5.09645591 L6.54668401,4.07022861 L7.45600925,4.07022861 L7.45600925,5.09642794 L8.20227034,5.09642794 L8.20227034,4.07022861 L9.11159558,4.07022861 L9.11159558,5.09642794 L9.71808741,5.09642794 L9.71808741,5.95915857 L9.11159558,5.95915857 L9.11159558,7.05483665 L9.85785669,7.05483665 L9.85785669,7.91758125 L9.85787067,7.91758125 Z" id="Shape" fill="#FFFFFF"></path>
            </g>
        </g>
    </g>
</svg>