<?xml version="1.0" encoding="UTF-8"?>
<svg width="14px" height="14px" viewBox="0 0 14 14" version="1.1" xmlns="http://www.w3.org/2000/svg" xmlns:xlink="http://www.w3.org/1999/xlink">
    <!-- Generator: Sketch 49.3 (51167) - http://www.bohemiancoding.com/sketch -->
    <title>模板</title>
    <desc>Created with Sketch.</desc>
    <defs></defs>
    <g id="设置管理" stroke="none" stroke-width="1" fill="none" fill-rule="evenodd">
        <g id="图标" transform="translate(-118.000000, -126.000000)" fill="#2ACDC8" fill-rule="nonzero">
            <g id="模板" transform="translate(118.000000, 126.000000)">
                <path d="M12.7272727,0 L1.27272727,0 C0.509090914,0 0,0.509090914 0,1.27272727 L0,3.5 C0,4.26363636 0.509090914,4.77272727 1.27272727,4.77272727 L12.7272727,4.77272727 C13.4909091,4.77272727 14,4.26363636 14,3.5 L14,1.27272727 C14,0.509090914 13.4909091,0 12.7272727,0 Z M13.3636364,3.5 C13.3636364,3.91363636 13.1409091,4.13636364 12.7272727,4.13636364 L1.27272727,4.13636364 C0.859090914,4.13636364 0.636363629,3.91363637 0.636363643,3.5 L0.636363643,1.27272727 C0.636363643,0.859090914 0.859090914,0.636363629 1.27272727,0.636363643 L12.7272727,0.636363643 C13.1409091,0.636363643 13.3636364,0.859090914 13.3636364,1.27272727 L13.3636364,3.5 Z M3.81818181,6.36363636 L1.27272727,6.36363636 C0.509090914,6.36363636 0,6.87272727 0,7.63636364 L0,12.7272727 C0,13.4909091 0.509090914,14 1.27272727,14 L3.81818181,14 C4.58181817,14 5.09090909,13.4909091 5.09090909,12.7272727 L5.09090909,7.63636364 C5.12272727,6.8409091 4.58181817,6.36363637 3.81818181,6.36363636 Z M4.45454546,12.7272727 C4.45454546,13.1409091 4.23181819,13.3636364 3.81818181,13.3636364 L1.27272727,13.3636364 C0.859090914,13.3636364 0.636363629,13.1409091 0.636363643,12.7272727 L0.636363643,7.63636364 C0.636363643,7.22272729 0.859090914,7 1.27272727,7 L3.81818181,7 C4.23181817,7 4.45454546,7.22272727 4.45454546,7.63636364 L4.45454546,12.7272727 Z M13.6818182,6.36363636 L7.31818181,6.36363636 C7.12727273,6.36363636 7,6.49090909 7,6.68181819 C7,6.87272729 7.12727273,7 7.31818181,7 L13.6818182,7 C13.8727273,7 14,6.87272727 14,6.71363636 C14,6.52272727 13.8727273,6.36363636 13.6818182,6.36363636 Z M13.6818182,9.86363636 L7.31818181,9.86363636 C7.12727273,9.86363636 7,9.99090909 7,10.1818182 C7,10.3727273 7.12727273,10.5 7.31818181,10.5 L13.6818182,10.5 C13.8727273,10.5 14,10.3727273 14,10.1818182 C14,10.0227273 13.8727273,9.86363637 13.6818182,9.86363636 Z M13.6818182,13.3636364 L7.31818181,13.3636364 C7.12727273,13.3636364 7,13.4909091 7,13.6818182 C7,13.8727273 7.12727273,14 7.31818181,14 L13.6818182,14 C13.8727273,14 14,13.8727273 14,13.6818182 C14,13.4909091 13.8409091,13.3636364 13.6818182,13.3636364 Z" id="Shape"></path>
            </g>
        </g>
    </g>
</svg>