<?xml version="1.0" encoding="UTF-8"?>
<svg width="13px" height="12px" viewBox="0 0 13 12" version="1.1" xmlns="http://www.w3.org/2000/svg" xmlns:xlink="http://www.w3.org/1999/xlink">
    <!-- Generator: Sketch 49.3 (51167) - http://www.bohemiancoding.com/sketch -->
    <title>治疗</title>
    <desc>Created with Sketch.</desc>
    <defs></defs>
    <g id="设置管理" stroke="none" stroke-width="1" fill="none" fill-rule="evenodd">
        <g id="图标" transform="translate(-528.000000, -232.000000)" fill="#2ACDC8" fill-rule="nonzero">
            <g id="治疗" transform="translate(528.000000, 232.000000)">
                <path d="M1.84245637,9.47509812 C1.99576733,9.14467918 1.99576733,8.76411056 1.84245637,8.43369161 C1.57923403,7.87501283 1.1058499,7.44133672 0.524150866,7.2259671 C0.423047636,7.1899391 0.310060722,7.22006308 0.240682067,7.30154408 C0.171303412,7.38302507 0.160109551,7.49874383 0.212598193,7.5918667 C0.218532392,7.70266695 0.218532392,7.81370243 0.212598193,7.92450267 L0.212598193,7.96032502 C0.212052654,8.21848624 0.183565839,8.47584028 0.127629283,8.72794653 C0.127629283,8.77400382 0.101881124,8.82517858 0.0864322314,8.87379462 C-0.0508563975,9.1446503 -0.0229726593,9.46924883 0.158527069,9.71306079 C0.356570264,9.92822585 0.637564004,10.0492295 0.930971701,10.0456968 C1.01263476,10.0457292 1.09396853,10.035411 1.17300436,10.0149919 C1.46734651,9.94593274 1.713864,9.74712347 1.84245637,9.47509812 Z M0.555048651,9.36507238 C0.508701973,9.31133888 0.526725687,9.2192243 0.588521242,9.02220143 C0.609119761,8.95823297 0.629718294,8.89426452 0.645167187,8.8328548 C0.707870787,8.53839184 0.739796294,8.23827948 0.740435363,7.93729638 L0.740435363,7.90403277 C1.01818873,8.08539594 1.24007309,8.33954529 1.38156441,8.63839068 C1.46902793,8.83297172 1.46902793,9.05534811 1.38156441,9.24992916 C1.31834762,9.37992424 1.19888758,9.4741418 1.05713766,9.50580298 C0.876564225,9.54753196 0.687067164,9.4944178 0.555048651,9.36507238 Z M9.69564345,9.3599549 L9.25792483,9.3599549 L9.25792483,8.92496938 C9.25789042,8.78367835 9.14262208,8.66915748 9.00044329,8.66915748 C8.8582645,8.66915748 8.74299616,8.78367835 8.74296175,8.92496938 L8.74296175,9.3599549 L8.30781793,9.3599549 C8.1656148,9.3599549 8.05033639,9.47451352 8.05033639,9.61582874 C8.05033639,9.75714396 8.1656148,9.87170258 8.30781793,9.87170258 L8.74296175,9.87170258 L8.74296175,10.3066881 C8.74299616,10.4479791 8.8582645,10.5625 9.00044329,10.5625 C9.14262208,10.5625 9.25789042,10.4479791 9.25792483,10.3066881 L9.25792483,9.87170258 L9.69564345,9.87170258 C9.83784658,9.87170258 9.953125,9.75714396 9.953125,9.61582874 C9.953125,9.47451352 9.83784658,9.3599549 9.69564345,9.3599549 Z" id="Shape"></path>
                <path d="M12.2279031,7.16995899 L10.3233975,7.16995899 C10.283212,7.07173783 10.1872445,7.0082015 10.0814738,7.00979077 L8.17954187,7.00979077 L10.9745325,4.1913469 L11.442938,4.6615181 C11.508221,4.72658573 11.6031277,4.75175134 11.6919078,4.72753529 C11.7806879,4.70331924 11.8498535,4.63340053 11.8733506,4.54411685 C11.8968477,4.45483318 11.8711065,4.35974886 11.8058235,4.29468124 L10.5601739,3.04175247 L11.105789,2.49408052 L11.2473401,2.63874858 C11.5312529,2.89473527 11.9650564,2.8830737 12.2349123,2.61220051 C12.5047682,2.34132733 12.516386,1.90588856 12.2613607,1.62090543 L10.8329815,0.184558226 C10.5490686,-0.0714285296 10.1152651,-0.0597669868 9.84540919,0.211106228 C9.57555326,0.481979444 9.56393552,0.91741827 9.81896089,1.20240139 L9.96051199,1.34706945 L9.41489686,1.89474139 L8.16667359,0.64181264 C8.06629136,0.541649747 7.90417029,0.541649747 7.80378806,0.64181264 C7.75506549,0.69031948 7.72765974,0.75634905 7.72765974,0.825231079 C7.72765974,0.894113109 7.75506549,0.960142678 7.80378806,1.00864952 L8.27219349,1.47623736 L3.61644936,6.14953246 C3.37874573,6.39218113 3.32654725,6.76209161 3.48776655,7.06145794 L3.23040092,7.31979376 C2.92933114,7.62237481 2.92933114,8.11255662 3.23040092,8.41513767 L3.46460365,8.65022328 L1.09169259,11.034663 C0.990773829,11.1352488 0.990197698,11.2989089 1.09040577,11.4002081 C1.19061384,11.5015074 1.35365935,11.5020857 1.45457812,11.4014998 L3.82491551,9.02222687 L4.05911824,9.25731246 C4.36056292,9.55951721 4.8489038,9.55951721 5.15034849,9.25731246 L5.4077141,8.99897664 C5.63456035,9.12022252 5.9066389,9.12022252 6.13348516,8.99897664 L6.13348516,10.7014097 C6.13380659,10.7898086 6.15038424,10.8773884 6.18238463,10.9597456 L5.87869319,10.9597456 C5.73657841,10.9597801 5.62138986,11.0754309 5.62138986,11.2180814 C5.62138986,11.3607319 5.73657841,11.4763827 5.87869319,11.4764172 L12.2279031,11.4764172 C12.432676,11.4764172 12.6290618,11.3947649 12.7738581,11.2494228 C12.9186543,11.1040807 13,10.9069545 13,10.7014097 L13,7.94496647 C13,7.51694166 12.6543205,7.16995899 12.2279031,7.16995899 Z M8.27991446,7.52646243 L9.8241082,7.52646243 L9.8241082,7.87004907 L8.27991446,7.87004907 L8.27991446,7.52646243 Z M10.1818464,0.551395105 C10.2195634,0.513056861 10.2710059,0.491477928 10.3246843,0.491477928 C10.3783628,0.491477928 10.4298053,0.513056861 10.4675223,0.551395105 L11.8984751,1.98515894 C11.9752824,2.06519692 11.9752824,2.19187374 11.8984751,2.27191171 C11.8607581,2.31024996 11.8093156,2.33182889 11.7556372,2.33182889 C11.7019588,2.33182889 11.6505163,2.31024996 11.6127993,2.27191171 L10.1818464,0.838147873 C10.1436522,0.8002887 10.1221543,0.748652265 10.1221543,0.694771489 C10.1221543,0.640890714 10.1436522,0.589254279 10.1818464,0.551395105 Z M10.3259712,1.71132296 L10.7403298,2.129827 L10.1947147,2.67749895 L9.77778239,2.25899491 L10.3259712,1.71132296 Z M5.64449048,4.84235318 L5.85295664,5.0516052 C5.90128131,5.10051144 5.96706289,5.1280205 6.03568623,5.1280205 C6.10430956,5.1280205 6.17009115,5.10051144 6.21841581,5.0516052 C6.31820254,4.95084455 6.31820254,4.78811234 6.21841581,4.68735169 L6.01509698,4.47809967 L6.6893949,3.79867645 L7.28905682,4.40059892 C7.38943905,4.50076181 7.55156011,4.50076181 7.65194235,4.40059892 C7.70066492,4.35209208 7.72807067,4.28606251 7.72807067,4.21718048 C7.72807067,4.14829845 7.70066492,4.08226888 7.65194235,4.03376204 L7.04455947,3.43442293 L7.72143107,2.7549997 L7.92732356,2.96425172 C7.97564823,3.01315796 8.04142982,3.04066702 8.11005315,3.04066702 C8.17867649,3.04066702 8.24445808,3.01315796 8.29278275,2.96425172 C8.39256947,2.86349107 8.39256947,2.70075885 8.29278275,2.5999982 L8.08431659,2.39074618 L8.63507902,1.84307423 L10.611647,3.82451002 L8.62993171,5.8136959 L5.41800873,5.07227207 L5.64449048,4.84235318 Z M4.78746296,8.88789223 C4.68708072,8.98805513 4.52495966,8.98805513 4.42457743,8.88789223 L3.59071281,8.04313408 C3.54199024,7.99462724 3.51458449,7.92859767 3.51458449,7.85971564 C3.51458449,7.79083361 3.54199024,7.72480404 3.59071281,7.6762972 L3.82491551,7.44379496 L5.02166566,8.6424732 L4.78746296,8.88789223 Z M5.95847654,8.49780513 C5.91015187,8.54671137 5.84437028,8.57422043 5.77574694,8.57422043 C5.70712361,8.57422043 5.64134202,8.54671137 5.59301735,8.49780513 L3.98190855,6.8780395 C3.88212183,6.77727885 3.88212183,6.61454663 3.98190855,6.51378598 L4.60473335,5.88602992 L5.20439527,6.49311912 C5.3047775,6.59328201 5.46689856,6.59328201 5.5672808,6.49311912 C5.61600336,6.44461228 5.64340912,6.37858271 5.64340912,6.30970068 C5.64340912,6.24081865 5.61600336,6.17478908 5.5672808,6.12628224 L4.97019254,5.52694313 L4.98820814,5.50627625 L8.20013113,6.23478329 L7.28133585,7.15962555 L6.90815569,7.15962555 C6.48173836,7.15962555 6.13605882,7.50660822 6.13605882,7.93463303 L6.13605882,8.30663662 L5.95847654,8.49780513 Z M11.4558063,10.6988264 C11.4558063,10.8415013 11.3405797,10.9571622 11.1984406,10.9571622 L6.90815569,10.9571622 C6.76601658,10.9571622 6.65079006,10.8415013 6.65079006,10.6988264 L6.65079006,7.94496647 C6.65079006,7.80229153 6.76601658,7.68663064 6.90815569,7.68663064 L7.76518322,7.68663064 L7.76518322,8.11546812 C7.76518322,8.25814305 7.88040974,8.37380393 8.02254885,8.37380393 L10.0814738,8.37380393 C10.2236129,8.37380393 10.3388394,8.25814305 10.3388395,8.11546812 L10.3388395,7.68663064 L11.1984406,7.68663064 C11.3405797,7.68663064 11.4558063,7.80229153 11.4558063,7.94496647 L11.4558063,10.6988264 Z M12.4852688,10.6988264 C12.4852688,10.8415013 12.3700422,10.9571622 12.2279031,10.9571622 L11.9345063,10.9571622 C11.9665067,10.874805 11.9830844,10.7872253 11.9834058,10.6988264 L11.9834058,7.94496647 C11.9833238,7.85654465 11.9667378,7.76892101 11.9345063,7.68663064 L12.2407714,7.68663064 C12.309029,7.68663064 12.374491,7.71384809 12.4227564,7.76229545 C12.4710218,7.81074282 12.498137,7.87645155 12.498137,7.94496647 L12.4852688,10.6988264 Z" id="Shape"></path>
            </g>
        </g>
    </g>
</svg>