<?xml version="1.0" encoding="UTF-8"?>
<svg width="13px" height="14px" viewBox="0 0 13 14" version="1.1" xmlns="http://www.w3.org/2000/svg" xmlns:xlink="http://www.w3.org/1999/xlink">
    <!-- Generator: Sketch 49.3 (51167) - http://www.bohemiancoding.com/sketch -->
    <title>诊断</title>
    <desc>Created with Sketch.</desc>
    <defs></defs>
    <g id="设置管理" stroke="none" stroke-width="1" fill="none" fill-rule="evenodd">
        <g id="图标" transform="translate(-117.000000, -231.000000)" fill="#0BBFBE" fill-rule="nonzero">
            <g id="诊断" transform="translate(117.000000, 231.000000)">
                <path d="M9.45088347,2.32142857 L5.17411653,2.32142857 C4.72294795,2.32142857 4.35267857,1.95198293 4.35267857,1.50181807 L4.35267857,1.34193193 C4.35267857,0.891767071 4.72294795,0.522321429 5.17411653,0.522321429 L9.45088347,0.522321429 C9.90205205,0.522321429 10.2723214,0.891767071 10.2723214,1.34193193 L10.2723214,1.50181807 C10.2723214,1.95198293 9.90205205,2.32142857 9.45088347,2.32142857 Z" id="Shape"></path>
                <path d="M10.5437487,0.988169643 C10.2843737,0.988169643 10.0749987,1.19754464 10.0749987,1.45691964 C10.0749987,1.71629464 10.2843737,1.92566964 10.5437487,1.92566964 C10.9468736,1.92566964 11.3281236,2.08504464 11.617186,2.37254464 C11.904686,2.66004464 12.064061,3.04129464 12.064061,3.44598214 L12.064061,10.4194196 L10.9531236,10.4194196 C10.1562487,10.4194196 9.50312379,11.0709821 9.50312379,11.8694196 L9.50312379,13.0537946 L2.45624969,13.0537946 C2.05312474,13.0537946 1.67187479,12.8944196 1.38281232,12.6069196 C1.09531236,12.3194196 0.935937381,11.9381696 0.935937381,11.5334821 L0.935937381,3.44441964 C0.935937381,3.04129464 1.09531236,2.66004464 1.38281232,2.37098214 C1.67031229,2.08348214 2.05156224,1.92410714 2.45624969,1.92410714 C2.71562465,1.92410714 2.92499963,1.71473214 2.92499963,1.45535714 C2.92499963,1.19598214 2.71562465,0.986607143 2.45624969,0.986607143 C1.10156236,0.986607143 0,2.08816964 0,3.44285714 L0,11.5303571 C0,12.8850446 1.10156236,13.9866071 2.45624969,13.9866071 L10.5437487,13.9866071 C11.898436,13.9866071 12.9999983,12.8850446 12.9999983,11.5303571 L12.9999983,3.44441964 C13.0015608,2.08973214 11.898436,0.988169643 10.5437487,0.988169643 Z M11.617186,12.6053571 C11.3296861,12.8928571 10.9484361,13.0522321 10.5437487,13.0522321 L10.0359362,13.0522321 L12.0625098,11.1694196 L12.0624985,11.5334821 C12.064061,11.9366071 11.904686,12.3178571 11.617186,12.6053571 Z" id="Shape"></path>
                <path d="M4.53644071,1.97321429 L8.57963072,1.97321429 C9.12804631,1.97321429 9.57589286,1.52970792 9.57589286,0.986607143 C9.57589286,0.443506365 9.12804631,0 8.57963072,0 L4.53644071,0 C3.98802511,0 3.54017857,0.443506365 3.54017857,0.986607143 C3.54017857,1.52970792 3.98959651,1.97321429 4.53644071,1.97321429 Z M4.53644071,0.933697612 L8.57963072,0.933697612 C8.60634438,0.933697612 8.63305803,0.958596215 8.63305803,0.986607143 C8.63305803,1.01306191 8.60791577,1.03951667 8.57963072,1.03951667 L4.53644071,1.03951667 C4.50972705,1.03951667 4.4830134,1.01461807 4.4830134,0.986607143 C4.4830134,0.960152377 4.50972705,0.933697612 4.53644071,0.933697612 Z" id="Shape"></path>
                <path d="M9.80409008,6.7963322 L9.28903561,6.7963322 C9.0299476,6.7963322 8.82080426,7.00535903 8.82080426,7.26430272 C8.82080426,7.52324641 9.0299476,7.73227324 9.28903561,7.73227324 L9.80409008,7.73227324 C10.0631781,7.73227324 10.2723214,7.52324641 10.2723214,7.26430272 C10.2723214,7.00535903 10.0631781,6.7963322 9.80409008,6.7963322 Z M7.79537762,6.7963322 L6.9634866,6.7963322 L6.9634866,6.00078231 C6.9634866,5.74183862 6.75434327,5.53281179 6.49525526,5.53281179 C6.23616725,5.53281179 6.02702391,5.74183862 6.02702391,6.00078231 L6.02702391,6.7963322 L3.48608849,6.7963322 C3.22700048,6.7963322 3.01785714,7.00535903 3.01785714,7.26430272 C3.01785714,7.52324641 3.22700048,7.73227324 3.48608849,7.73227324 L6.02702391,7.73227324 L6.02702391,10.5588152 C6.02702391,10.8177589 6.23616725,11.0267857 6.49525526,11.0267857 C6.75434327,11.0267857 6.9634866,10.8177589 6.9634866,10.5588152 L6.9634866,7.73227324 L7.79537762,7.73227324 C8.05446563,7.73227324 8.26360896,7.52324641 8.26360896,7.26430272 C8.26360896,7.00535903 8.05446563,6.7963322 7.79537762,6.7963322 Z M6.49525526,5.0040051 C6.75434327,5.0040051 6.9634866,4.79497827 6.9634866,4.53603458 L6.9634866,4.12422052 C6.9634866,3.86527683 6.75434327,3.65625 6.49525526,3.65625 C6.23616725,3.65625 6.02702391,3.86527683 6.02702391,4.12422052 L6.02702391,4.53603458 C6.02702391,4.79497827 6.23616725,5.0040051 6.49525526,5.0040051 Z" id="Shape"></path>
            </g>
        </g>
    </g>
</svg>