<?xml version="1.0" encoding="UTF-8"?>
<svg width="22px" height="22px" viewBox="0 0 22 22" version="1.1" xmlns="http://www.w3.org/2000/svg" xmlns:xlink="http://www.w3.org/1999/xlink">
    <!-- Generator: Sketch 46.2 (44496) - http://www.bohemiancoding.com/sketch -->
    <title>Icon/Warning</title>
    <desc>Created with Sketch.</desc>
    <defs></defs>
    <g id="Symbols" stroke="none" stroke-width="1" fill="none" fill-rule="evenodd">
        <g id="_Resources/Modal/Icon/Warning" fill="#FAAD14">
            <g id="Icon/Warning">
                <path d="M0,11 C0,4.92421875 4.92421875,0 11,0 C17.0757812,0 22,4.92421875 22,11 C22,17.0757812 17.0757812,22 11,22 C4.92421875,22 0,17.0757812 0,11 Z M11.6875,4.8125 C11.6875,4.43222656 11.3802734,4.125 11,4.125 L11,4.125 C10.6197266,4.125 10.3125,4.43222656 10.3125,4.8125 L10.3125,4.8125 C10.3125,5.19277344 10.6197266,5.5 11,5.5 L11,5.5 C11.3802734,5.5 11.6875,5.19277344 11.6875,4.8125 L11.6875,4.8125 L11.6875,4.8125 Z M11.6875,7.5625 C11.6875,7.18222656 11.3802734,6.875 11,6.875 L11,6.875 C10.6197266,6.875 10.3125,7.18222656 10.3125,7.5625 L10.3125,17.1875 C10.3125,17.5677734 10.6197266,17.875 11,17.875 L11,17.875 C11.3802734,17.875 11.6875,17.5677734 11.6875,17.1875 L11.6875,7.5625 L11.6875,7.5625 Z" id="Shape-Copy-2" transform="translate(11.000000, 11.000000) scale(1, -1) translate(-11.000000, -11.000000) "></path>
            </g>
        </g>
    </g>
</svg>